<?xml version="1.0" encoding="utf-8"?>
<!-- Generator: Adobe Illustrator 17.0.0, SVG Export Plug-In . SVG Version: 6.00 Build 0)  -->
<!DOCTYPE svg PUBLIC "-//W3C//DTD SVG 1.1//EN" "http://www.w3.org/Graphics/SVG/1.1/DTD/svg11.dtd">
<svg version="1.1" id="Layer_1" xmlns="http://www.w3.org/2000/svg" xmlns:xlink="http://www.w3.org/1999/xlink" x="0px" y="0px"
	 width="40px" height="40px" viewBox="0 0 40 40" enable-background="new 0 0 40 40" xml:space="preserve">
<path d="M16.525,18.741c0,0,3.41-0.265,3.41-4.433c0-4.169-2.79-6.203-6.325-6.203H1.977v23.297H13.61c0,0,7.101,0.233,7.101-6.877
	C20.711,24.526,21.021,18.741,16.525,18.741z M7.104,12.246h6.506c0,0,1.581,0,1.581,2.424c0,2.424-0.929,2.775-1.985,2.775H7.104
	V12.246z M13.281,27.261H7.104v-6.225h6.506c0,0,2.357-0.032,2.357,3.199C15.967,26.959,14.206,27.24,13.281,27.261z M30.182,14.032
	c-8.597,0-8.59,8.95-8.59,8.95s-0.589,8.906,8.59,8.906c0,0,7.648,0.457,7.648-6.195h-3.933c0,0,0.13,2.505-3.585,2.505
	c0,0-3.934,0.275-3.934-4.053h11.583C37.962,24.145,39.23,14.032,30.182,14.032z M33.678,21.036h-7.343c0,0,0.48-3.591,3.933-3.591
	C33.721,17.445,33.678,21.036,33.678,21.036z M34.595,9.477h-9.222v2.87h9.222V9.477z"/>
</svg>
