<?xml version="1.0" encoding="utf-8"?>
<!-- Generator: Adobe Illustrator 17.0.2, SVG Export Plug-In . SVG Version: 6.00 Build 0)  -->
<!DOCTYPE svg PUBLIC "-//W3C//DTD SVG 1.1//EN" "http://www.w3.org/Graphics/SVG/1.1/DTD/svg11.dtd">
<svg version="1.1" id="Layer_1" xmlns="http://www.w3.org/2000/svg" xmlns:xlink="http://www.w3.org/1999/xlink" x="0px" y="0px"
	 width="50px" height="50px" viewBox="0 0 50 50" enable-background="new 0 0 50 50" xml:space="preserve">
<path fill="#010101" d="M47.39,5.667C46.513,5.977,3.164,21.253,2.31,21.553c-0.725,0.255-0.886,0.881-0.025,1.225
	c1.025,0.41,9.692,3.883,9.692,3.883h-0.001l5.746,2.303c0,0,27.671-20.32,28.048-20.596c0.376-0.277,0.811,0.242,0.537,0.539
	c-0.274,0.298-20.098,21.738-20.098,21.738c-0.001,0.001-0.001,0.001-0.001,0.001l-1.156,1.285l1.529,0.823v0.001
	c0,0,11.874,6.391,12.72,6.846c0.741,0.399,1.706,0.068,1.919-0.855c0.252-1.088,7.264-31.307,7.421-31.979
	C48.844,5.891,48.267,5.358,47.39,5.667z M17.67,42.76c0,0.631,0.354,0.806,0.845,0.36c0.64-0.581,7.274-6.535,7.274-6.535
	l-8.12-4.201V42.76z"/>
</svg>
