<?xml version="1.0" encoding="utf-8"?>
<!-- Generator: Adobe Illustrator 17.0.2, SVG Export Plug-In . SVG Version: 6.00 Build 0)  -->
<!DOCTYPE svg PUBLIC "-//W3C//DTD SVG 1.1//EN" "http://www.w3.org/Graphics/SVG/1.1/DTD/svg11.dtd">
<svg version="1.1" xmlns="http://www.w3.org/2000/svg" xmlns:xlink="http://www.w3.org/1999/xlink" x="0px" y="0px" width="250px"
	 height="250px" viewBox="0 0 250 250" enable-background="new 0 0 250 250" xml:space="preserve">
<g id="Layer_1">
</g>
<g id="Layer_2">
</g>
<g id="Layer_3">
	<defs>
		<circle id="SVGID_11_" cx="125.996" cy="-3568.75" r="102.06"/>
	</defs>
	<clipPath id="SVGID_2_">
		<use xlink:href="#SVGID_11_"  overflow="visible"/>
	</clipPath>
</g>
<g id="Layer_4">
	<g>
		<polygon fill="#010101" points="146.131,105.328 164.037,51.179 38.545,9.678 41.031,41.162 20.64,63.827 		"/>
		<polygon fill="#010101" points="65.686,153.749 63.538,146.167 62.987,144.216 59.898,133.324 52.605,131.356 39.373,135.104 
			37.717,135.572 27.793,138.384 		"/>
		<polygon fill="#010101" points="190.437,44.783 191.47,52.594 191.736,54.603 193.218,65.83 200.152,68.828 213.789,67.026 
			215.493,66.801 224.416,65.397 		"/>
		<polygon fill="#010101" points="93.887,100.808 78.612,155.759 205.964,191.155 201.957,159.828 221.23,136.207 		"/>
		<g>
			<g opacity="0.5">
				<circle fill="#010101" cx="127.706" cy="94.843" r="89.885"/>
			</g>
			<g>
				<circle fill="#29ABE2" cx="126.706" cy="92.843" r="89.885"/>
			</g>
		</g>
		<path id="world_10_" fill="#FFFFFF" d="M126.49,18.505c-42.164,0-76.344,34.182-76.344,76.344c0,42.17,34.18,76.342,76.344,76.342
			c42.165,0,76.345-34.173,76.345-76.342C202.835,52.687,168.655,18.505,126.49,18.505z M192.858,92.389h-29.533
			c-0.268-10.907-2.207-21.331-5.652-30.875c6.644-2.772,12.791-6.462,18.401-10.817C186.041,61.881,192.271,76.406,192.858,92.389z
			 M123.769,161.2c-8.187-6.811-15.052-15.662-20.08-25.943c6.448-2.012,13.28-3.117,20.337-3.333v29.29
			C123.94,161.215,123.854,161.208,123.769,161.2z M129.208,28.497c9.288,7.738,16.87,18.094,21.997,30.171
			c-7.019,2.4-14.485,3.794-22.252,4.041V28.481C129.04,28.489,129.118,28.497,129.208,28.497z M137.41,29.335
			c13.593,2.26,25.795,8.608,35.283,17.798c-5.154,3.96-10.795,7.307-16.876,9.841C151.331,46.35,145.041,36.959,137.41,29.335z
			 M124.027,28.481v34.228c-7.765-0.246-15.234-1.641-22.252-4.041c5.128-12.078,12.71-22.434,22-30.171
			C123.862,28.497,123.94,28.489,124.027,28.481z M97.164,56.974c-6.082-2.534-11.723-5.881-16.877-9.841
			c9.491-9.19,21.692-15.538,35.285-17.798C107.94,36.959,101.649,46.35,97.164,56.974z M99.918,63.21
			c7.598,2.638,15.687,4.173,24.109,4.424v24.754H94.581C94.846,82.079,96.671,72.223,99.918,63.21z M124.027,97.314v29.672
			c-7.765,0.249-15.276,1.508-22.356,3.792c-4.268-10.157-6.781-21.474-7.09-33.464H124.027z M115.571,160.368
			c-12.179-2.027-23.241-7.329-32.233-15.024c4.851-3.369,10.094-6.217,15.699-8.381
			C103.33,145.872,108.954,153.773,115.571,160.368z M128.954,161.215v-29.29c7.057,0.215,13.889,1.32,20.337,3.333
			c-5.025,10.282-11.893,19.132-20.079,25.943C129.127,161.208,129.04,161.215,128.954,161.215z M153.948,136.963
			c5.601,2.164,10.843,5.012,15.694,8.381c-8.993,7.696-20.053,12.997-32.232,15.024
			C144.026,153.773,149.651,145.872,153.948,136.963z M151.309,130.779c-7.078-2.284-14.588-3.543-22.356-3.792V97.314h29.445
			C158.092,109.304,155.577,120.622,151.309,130.779z M128.954,92.389V67.634c8.422-0.251,16.51-1.787,24.109-4.424
			c3.247,9.013,5.072,18.869,5.337,29.178H128.954z M76.909,50.697c5.608,4.355,11.757,8.044,18.399,10.817
			c-3.444,9.543-5.381,19.968-5.652,30.875H60.123C60.71,76.406,66.94,61.881,76.909,50.697z M60.123,97.314h29.533
			c0.305,12.581,2.932,24.47,7.403,35.146c-6.24,2.447-12.058,5.683-17.426,9.515C68.062,130.471,60.767,114.731,60.123,97.314z
			 M173.348,141.975c-5.366-3.832-11.186-7.068-17.424-9.515c4.47-10.676,7.096-22.565,7.401-35.146h29.533
			C192.213,114.731,184.919,130.471,173.348,141.975z"/>
		<g>
			<g opacity="0.5">
				<path fill="#3E484D" d="M37.797,140.615l174.705-14.685c0,0,0.888-2.577,0.888-2.731s11.089-55.014,11.089-55.014L30,84.295
					v52.887"/>
			</g>
			<g>
				<polygon fill="#3E484D" points="22.536,81.488 27.46,138.585 229.36,122.469 224.436,65.371 				"/>
			</g>
		</g>
		<g>
			<path fill="#FFFFFF" d="M33.413,104.514l4.86-0.379l1.875,24.091l-4.859,0.377L33.413,104.514z"/>
			<path fill="#FFFFFF" d="M54.299,119.487l0.067-0.006l-1.284-16.498l4.453-0.346l1.876,24.089l-5.533,0.43l-7.252-16.407
				l-0.067,0.006l1.314,16.869l-4.454,0.348l-1.874-24.091l5.6-0.435L54.299,119.487z"/>
			<path fill="#FFFFFF" d="M75.153,105.271l-5.263,0.41l1.565,20.107l-4.857,0.379l-1.565-20.109l-5.265,0.41l-0.31-3.982
				l15.385-1.197L75.153,105.271z"/>
			<path fill="#FFFFFF" d="M90.369,104.086l-8.603,0.67l0.441,5.667l8.098-0.63l0.309,3.981l-8.097,0.631l0.505,6.478l8.94-0.696
				l0.31,3.981l-13.798,1.075l-1.876-24.091l13.46-1.047L90.369,104.086z"/>
			<path fill="#FFFFFF" d="M101.631,99.203c2.025-0.157,3.638,0.232,4.843,1.169c1.205,0.935,1.889,2.449,2.051,4.542
				c0.126,1.618-0.097,2.965-0.671,4.039c-0.572,1.075-1.533,1.812-2.882,2.211l0.005,0.067c1.229,0.084,2.147,0.409,2.758,0.973
				c0.608,0.564,1.034,1.515,1.273,2.854c0.081,0.447,0.153,0.933,0.216,1.458c0.064,0.529,0.132,1.117,0.206,1.767
				c0.145,1.279,0.288,2.252,0.432,2.919c0.186,0.665,0.515,1.104,0.984,1.315l0.016,0.203l-5.262,0.409
				c-0.274-0.319-0.462-0.694-0.564-1.126c-0.101-0.434-0.181-0.886-0.24-1.356l-0.495-4.613c-0.119-0.94-0.412-1.664-0.881-2.17
				c-0.47-0.506-1.211-0.721-2.223-0.642l-2.598,0.202l0.793,10.189l-4.858,0.379l-1.875-24.09L101.631,99.203z M100.359,109.892
				c1.169-0.09,2.047-0.435,2.634-1.035c0.587-0.601,0.83-1.553,0.727-2.858c-0.173-2.227-1.385-3.252-3.633-3.078l-2.294,0.179
				l0.541,6.95L100.359,109.892z"/>
			<path fill="#FFFFFF" d="M123.834,114.073l0.066-0.005l-1.284-16.498l4.453-0.347l1.875,24.09l-5.533,0.431l-7.252-16.407
				l-0.067,0.005l1.314,16.87l-4.454,0.346l-1.874-24.089l5.6-0.436L123.834,114.073z"/>
			<path fill="#FFFFFF" d="M143.709,99.934l-8.603,0.67l0.441,5.667l8.097-0.63l0.31,3.981l-8.097,0.631l0.504,6.478l8.941-0.696
				l0.31,3.981l-13.799,1.075l-1.875-24.091l13.462-1.047L143.709,99.934z"/>
			<path fill="#FFFFFF" d="M160.747,98.608l-5.263,0.409l1.565,20.109l-4.859,0.377l-1.565-20.107l-5.262,0.41l-0.309-3.982
				l15.384-1.197L160.747,98.608z"/>
			<path fill="#FFFFFF" d="M178.148,93.247c1.688-0.131,3.071,0.038,4.148,0.509c1.077,0.471,1.944,1.195,2.596,2.174
				c0.653,0.979,1.137,2.181,1.452,3.603c0.315,1.426,0.541,3.026,0.679,4.803c0.163,2.114,0.178,3.963,0.041,5.546
				c-0.136,1.583-0.481,2.905-1.032,3.966c-0.552,1.062-1.337,1.88-2.354,2.457c-1.019,0.578-2.337,0.929-3.958,1.056l-7.658,0.596
				l-1.874-24.091L178.148,93.247z M178.801,113.833c0.855-0.066,1.53-0.266,2.025-0.599c0.494-0.332,0.868-0.847,1.118-1.546
				c0.251-0.699,0.385-1.603,0.399-2.713c0.017-1.108-0.04-2.485-0.168-4.127c-0.106-1.372-0.245-2.572-0.416-3.599
				c-0.171-1.027-0.423-1.873-0.757-2.538c-0.334-0.664-0.791-1.148-1.369-1.455c-0.578-0.304-1.328-0.422-2.249-0.351l-2.058,0.161
				l1.319,16.936L178.801,113.833z"/>
			<path fill="#FFFFFF" d="M199,91.623l8.251,23.594l-5.06,0.394l-1.511-5.007l-6.409,0.499l-0.718,5.18l-5.06,0.394l4.501-24.586
				L199,91.623z M199.526,106.687l-3.172-10.648l-0.066,0.006l-1.485,11.01L199.526,106.687z"/>
			<path fill="#FFFFFF" d="M212.477,99.942l0.068-0.005l2.649-9.575l5.262-0.41l-5.104,15.095l0.738,9.481l-4.859,0.377
				l-0.738-9.481l-7.378-14.123l5.465-0.426L212.477,99.942z"/>
		</g>
		<g>
			<path fill="#FFFFFF" d="M32.44,89.748l1.622-0.126l0.625,8.042l-1.621,0.126L32.44,89.748z"/>
			<path fill="#FFFFFF" d="M39.412,94.747l0.022-0.002l-0.428-5.507l1.486-0.115l0.626,8.042l-1.848,0.143l-2.419-5.476
				l-0.023,0.001l0.438,5.631l-1.486,0.115l-0.626-8.041l1.869-0.146L39.412,94.747z"/>
			<path fill="#FFFFFF" d="M46.316,90.007l-1.757,0.137l0.522,6.711l-1.622,0.126l-0.522-6.711l-1.756,0.137l-0.103-1.331
				l5.135-0.399L46.316,90.007z"/>
			<path fill="#FFFFFF" d="M51.396,89.611l-2.872,0.224l0.148,1.891l2.702-0.209l0.105,1.328l-2.703,0.21l0.168,2.162l2.984-0.233
				l0.103,1.33l-4.606,0.358l-0.626-8.041l4.493-0.35L51.396,89.611z"/>
			<path fill="#FFFFFF" d="M55.154,87.98c0.677-0.052,1.215,0.078,1.617,0.391c0.403,0.313,0.63,0.819,0.685,1.516
				c0.042,0.541-0.034,0.989-0.224,1.349c-0.192,0.359-0.512,0.605-0.963,0.738l0.001,0.022c0.411,0.029,0.718,0.137,0.921,0.326
				c0.203,0.188,0.345,0.505,0.426,0.952c0.026,0.15,0.051,0.311,0.072,0.487c0.02,0.176,0.043,0.373,0.069,0.589
				c0.048,0.428,0.096,0.753,0.143,0.976c0.064,0.221,0.172,0.367,0.329,0.438l0.005,0.067l-1.757,0.137
				c-0.091-0.106-0.154-0.231-0.189-0.376c-0.034-0.144-0.06-0.295-0.079-0.452l-0.166-1.54c-0.04-0.314-0.138-0.554-0.295-0.725
				c-0.156-0.168-0.404-0.239-0.742-0.213l-0.867,0.067l0.264,3.4l-1.622,0.126l-0.625-8.042L55.154,87.98z M54.73,91.549
				c0.391-0.03,0.684-0.147,0.88-0.346c0.195-0.201,0.277-0.518,0.243-0.955c-0.058-0.742-0.463-1.086-1.213-1.027l-0.766,0.059
				l0.18,2.322L54.73,91.549z"/>
			<path fill="#FFFFFF" d="M62.622,92.94l0.023-0.002l-0.429-5.507l1.486-0.115l0.626,8.042L62.482,95.5l-2.421-5.476l-0.023,0.002
				l0.439,5.63l-1.486,0.117l-0.626-8.042l1.869-0.145L62.622,92.94z"/>
			<path fill="#FFFFFF" d="M68.398,86.95l2.756,7.876l-1.69,0.131l-0.504-1.671l-2.14,0.166l-0.239,1.73l-1.689,0.131l1.503-8.206
				L68.398,86.95z M68.575,91.979l-1.059-3.554l-0.022,0.001l-0.497,3.675L68.575,91.979z"/>
			<path fill="#FFFFFF" d="M75.169,87.761l-1.757,0.137l0.522,6.711l-1.622,0.126l-0.522-6.711l-1.756,0.136l-0.103-1.33l5.135-0.4
				L75.169,87.761z"/>
			<path fill="#FFFFFF" d="M75.729,86.379l1.622-0.126l0.626,8.042l-1.622,0.126L75.729,86.379z"/>
			<path fill="#FFFFFF" d="M78.541,88.511c0.017-0.518,0.106-0.969,0.269-1.352c0.162-0.382,0.416-0.69,0.761-0.926
				c0.344-0.234,0.82-0.375,1.428-0.422c0.607-0.048,1.1,0.018,1.476,0.196c0.376,0.179,0.675,0.444,0.896,0.797
				c0.219,0.353,0.377,0.785,0.474,1.295c0.097,0.511,0.168,1.069,0.216,1.677c0.048,0.616,0.064,1.18,0.047,1.695
				c-0.017,0.515-0.107,0.964-0.269,1.348c-0.164,0.382-0.417,0.684-0.762,0.908c-0.345,0.224-0.822,0.358-1.429,0.406
				c-0.61,0.047-1.1-0.012-1.475-0.18c-0.376-0.167-0.674-0.426-0.894-0.779c-0.22-0.353-0.379-0.783-0.474-1.289
				c-0.096-0.506-0.168-1.066-0.216-1.683C78.541,89.595,78.525,89.031,78.541,88.511z M80.356,91.452
				c0.057,0.377,0.132,0.68,0.23,0.911c0.097,0.231,0.222,0.394,0.379,0.492c0.154,0.097,0.351,0.137,0.593,0.119
				c0.239-0.019,0.429-0.089,0.566-0.209c0.138-0.12,0.237-0.302,0.298-0.545c0.06-0.242,0.089-0.554,0.085-0.935
				c-0.002-0.381-0.025-0.843-0.067-1.383c-0.042-0.541-0.091-0.998-0.147-1.372c-0.055-0.373-0.132-0.676-0.23-0.911
				c-0.097-0.233-0.224-0.399-0.379-0.496c-0.155-0.097-0.352-0.137-0.593-0.119c-0.24,0.019-0.429,0.089-0.567,0.209
				c-0.138,0.12-0.237,0.304-0.297,0.549c-0.06,0.248-0.089,0.559-0.085,0.935c0.002,0.379,0.025,0.838,0.067,1.378
				C80.252,90.616,80.301,91.076,80.356,91.452z"/>
			<path fill="#FFFFFF" d="M88.85,90.899l0.023-0.002l-0.429-5.507l1.487-0.115l0.625,8.041l-1.847,0.144l-2.42-5.476l-0.023,0.001
				l0.439,5.631l-1.487,0.115l-0.625-8.042l1.868-0.145L88.85,90.899z"/>
			<path fill="#FFFFFF" d="M94.627,84.908l2.754,7.876l-1.689,0.131l-0.504-1.672l-2.14,0.167l-0.239,1.73l-1.69,0.131l1.503-8.208
				L94.627,84.908z M94.803,89.937l-1.058-3.555l-0.023,0.002l-0.495,3.675L94.803,89.937z"/>
			<path fill="#FFFFFF" d="M97.319,84.698l1.622-0.126l0.522,6.712l2.872-0.224l0.103,1.33l-4.494,0.35L97.319,84.698z"/>
		</g>
		<g>
			<g opacity="0.35">
				<polygon fill="#010101" points="51.684,159.997 67.913,164.057 66.51,169.654 71.362,170.869 82.938,124.613 88.911,126.105 
					90.219,120.876 100.666,123.494 99.358,128.716 105.511,130.259 100.329,150.962 110.585,153.532 109.278,158.753 
					124.763,162.625 123.36,168.223 134.176,170.933 132.919,175.968 137.956,177.231 136.602,182.636 142.569,184.132 
					133.555,220.132 127.401,218.589 123.344,234.815 118.304,233.555 114.423,249.041 60.89,235.641 64.773,220.157 
					59.362,218.803 62.022,208.17 56.987,206.91 59.603,196.462 54.38,195.156 56.993,184.717 51.773,183.405 53.172,177.809 
					47.574,176.409 				"/>
				<polygon fill="#010101" points="68.566,229.137 70.6,221.1 65.379,219.794 68.081,208.978 62.675,207.621 65.336,196.988 
					60.301,195.727 62.959,185.099 57.74,183.788 59.091,178.376 54.431,177.213 56.804,167.737 65.331,169.872 63.836,175.051 
					70.636,176.732 68.523,186.069 73.932,186.918 89.089,126.663 98.751,129.079 86.845,176.649 93.596,178.332 98.92,157.071 
					108.581,159.492 103.442,180.007 109.817,181.607 113.604,166.494 122.706,168.772 117.665,188.922 123.668,190.417 
					127.449,175.311 132.265,176.521 131.005,181.551 136.045,182.816 127.22,218.029 121.812,216.679 117.755,232.902 
					112.714,231.64 110.679,239.679 				"/>
				<path fill="#010101" d="M89.452,127.269l8.693,2.174l-11.664,46.597l-0.243,0.971l0.971,0.242l5.781,1.442l0.969,0.242
					l0.243-0.969l5.081-20.292l8.691,2.178l-4.895,19.546l-0.243,0.97l0.97,0.243l5.405,1.356l0.97,0.243l0.243-0.97l3.543-14.142
					l8.133,2.034l-4.799,19.18l-0.243,0.971l0.971,0.242l5.033,1.254l0.969,0.242l0.242-0.969l3.537-14.136l3.847,0.966
					l-1.017,4.061l-0.243,0.969l0.969,0.243l4.07,1.021l-8.582,34.244l-4.439-1.108l-0.97-0.242l-0.243,0.97l-3.815,15.253
					l-4.071-1.019l-0.967-0.242L112.107,232l-1.791,7.073l-41.142-10.3l1.787-7.065l0.246-0.972l-0.973-0.243l-4.249-1.063
					l2.459-9.847l0.242-0.969l-0.969-0.243l-4.437-1.113l2.419-9.664l0.243-0.97l-0.97-0.243l-4.065-1.018l2.416-9.658l0.242-0.969
					l-0.969-0.243l-4.251-1.067l1.109-4.442l0.242-0.97l-0.971-0.242l-3.689-0.92l2.13-8.507l7.539,1.888l-1.206,4.183l-0.288,0.999
					l1.009,0.249l5.818,1.437l-1.887,8.338l-0.236,1.042l1.056,0.166l4.43,0.696l0.902,0.142l0.223-0.886L89.452,127.269
					 M88.726,126.057l-15.167,60.297l-4.43-0.696l2.103-9.294l-6.77-1.672l1.493-5.178l-9.514-2.383l-2.616,10.448l4.66,1.163
					l-1.351,5.411l5.219,1.311l-2.659,10.628l5.035,1.261l-2.661,10.634l5.406,1.356l-2.702,10.817l5.219,1.305l-2.033,8.037
					l43.082,10.785l2.036-8.04l5.042,1.262l4.058-16.223l5.408,1.35l9.067-36.183l-5.04-1.265l1.259-5.03l-5.786-1.453l-3.78,15.107
					l-5.033-1.254l5.042-20.15l-10.073-2.52L109.454,181l-5.405-1.356l5.138-20.516l-10.631-2.664l-5.324,21.262l-5.781-1.442
					l11.907-47.568L88.726,126.057L88.726,126.057z"/>
			</g>
			<g>
				<g>
					<polygon fill="#1A1A1A" points="49.684,157.997 65.913,162.057 64.51,167.654 69.362,168.869 80.938,122.613 86.911,124.105 
						88.219,118.876 98.666,121.494 97.358,126.716 103.511,128.259 98.329,148.962 108.585,151.532 107.278,156.753 
						122.763,160.625 121.36,166.223 132.176,168.933 130.919,173.968 135.956,175.231 134.602,180.636 140.569,182.132 
						131.555,218.132 125.401,216.589 121.344,232.815 116.304,231.555 112.423,247.041 58.89,233.641 62.773,218.157 
						57.362,216.803 60.022,206.17 54.987,204.91 57.603,194.462 52.38,193.156 54.993,182.717 49.773,181.405 51.172,175.809 
						45.574,174.409 					"/>
					<g>
						<polygon fill="#FFFFFF" points="66.566,227.137 68.6,219.1 63.379,217.794 66.081,206.978 60.675,205.621 63.336,194.988 
							58.301,193.727 60.959,183.099 55.74,181.788 57.091,176.376 52.431,175.213 54.804,165.737 63.331,167.872 61.836,173.051 
							68.636,174.732 66.523,184.069 71.932,184.918 87.089,124.663 96.751,127.079 84.845,174.649 91.596,176.332 96.92,155.071 
							106.581,157.492 101.442,178.007 107.817,179.607 111.604,164.494 120.706,166.772 115.665,186.922 121.668,188.417 
							125.449,173.311 130.265,174.521 129.005,179.551 134.045,180.816 125.22,216.029 119.812,214.679 115.755,230.902 
							110.714,229.64 108.679,237.679 						"/>
						<path fill="#231F20" d="M87.452,125.269l8.693,2.174l-11.664,46.597l-0.243,0.971l0.971,0.242l5.781,1.442l0.969,0.242
							l0.243-0.969l5.081-20.292l8.691,2.178l-4.895,19.546l-0.243,0.97l0.97,0.243l5.405,1.356l0.97,0.243l0.243-0.97l3.543-14.142
							l8.133,2.034l-4.799,19.18l-0.243,0.971l0.971,0.242l5.033,1.254l0.969,0.242l0.242-0.969l3.537-14.136l3.847,0.966
							l-1.017,4.061l-0.243,0.969l0.969,0.243l4.07,1.021l-8.582,34.244l-4.439-1.108l-0.97-0.242l-0.243,0.97l-3.815,15.253
							l-4.071-1.019l-0.967-0.242L110.107,230l-1.791,7.073l-41.142-10.3l1.787-7.065l0.246-0.972l-0.973-0.243l-4.249-1.063
							l2.459-9.847l0.242-0.969l-0.969-0.243l-4.437-1.113l2.419-9.664l0.243-0.97l-0.97-0.243l-4.065-1.018l2.416-9.658
							l0.242-0.969l-0.969-0.243l-4.251-1.067l1.109-4.442l0.242-0.97l-0.971-0.242l-3.689-0.92l2.13-8.507l7.539,1.888
							l-1.206,4.183l-0.288,0.999l1.009,0.249l5.818,1.437l-1.887,8.338l-0.236,1.042l1.056,0.166l4.43,0.696l0.902,0.142
							l0.223-0.886L87.452,125.269 M86.726,124.057l-15.167,60.297l-4.43-0.696l2.103-9.294l-6.77-1.672l1.493-5.178l-9.514-2.383
							l-2.616,10.448l4.66,1.163l-1.351,5.411l5.219,1.311l-2.659,10.628l5.035,1.261l-2.661,10.634l5.406,1.356l-2.702,10.817
							l5.219,1.305l-2.033,8.037l43.082,10.785l2.036-8.04l5.042,1.262l4.058-16.223l5.408,1.35l9.067-36.183l-5.04-1.265
							l1.259-5.03l-5.786-1.453l-3.78,15.107l-5.033-1.254l5.042-20.15l-10.073-2.52L107.454,179l-5.405-1.356l5.138-20.516
							l-10.631-2.664l-5.324,21.262l-5.781-1.442l11.907-47.568L86.726,124.057L86.726,124.057z"/>
					</g>
				</g>
			</g>
		</g>
	</g>
</g>
</svg>
