<?xml version="1.0" encoding="utf-8"?>
<!-- Generator: Adobe Illustrator 17.0.2, SVG Export Plug-In . SVG Version: 6.00 Build 0)  -->
<!DOCTYPE svg PUBLIC "-//W3C//DTD SVG 1.1//EN" "http://www.w3.org/Graphics/SVG/1.1/DTD/svg11.dtd">
<svg version="1.1" xmlns="http://www.w3.org/2000/svg" xmlns:xlink="http://www.w3.org/1999/xlink" x="0px" y="0px" width="250px"
	 height="250px" viewBox="0 0 250 250" enable-background="new 0 0 250 250" xml:space="preserve">
<g id="Layer_1">
</g>
<g id="Layer_2">
</g>
<g id="Layer_3">
	<defs>
		<circle id="SVGID_11_" cx="125.996" cy="-2674.932" r="102.06"/>
	</defs>
	<clipPath id="SVGID_2_">
		<use xlink:href="#SVGID_11_"  overflow="visible"/>
	</clipPath>
</g>
<g id="Layer_4">
	<g>
		<g>
			<circle fill="none" stroke="#0066A0" stroke-width="19" stroke-dasharray="1.9895,9.9477" cx="125" cy="125" r="98.789"/>
		</g>
		<g>
			<path fill="#0066A0" d="M143.438,63.537l-35.333,19.078v5.804c1.548,0.169,2.753,1.48,2.753,3.073h-6.182
				c0-1.654,1.3-3.001,2.934-3.083v-5.525l-10.47,5.653v2.346l7.265,4.058v38.54h0.451V95.193l0.632,0.353v37.934h0.452V95.799
				l0.63,0.352v37.33h0.453V96.404l0.631,0.352v36.724h0.452V97.008l0.632,0.353v36.119h0.451V97.612l0.631,0.353v35.515h0.453
				V98.217l9.151,5.112c2.448-11.246,12.42-21.969,23.587-21.969c0.022,0,0.044,0.001,0.067,0.003
				c0.023-0.002,0.044-0.003,0.067-0.003c11.308,0,21.393,10.995,23.679,22.393l22.913-12.871v-2.346L143.438,63.537z
				 M110.903,94.493h-6.272v-1.174h6.272V94.493z"/>
			<path fill="#0066A0" d="M119.524,108.098l0.329-0.195l0.098-0.06c0.12-0.072,0.337-0.191,0.482-0.264l0.049-0.025l0.055-0.003
				l0.141-0.01c0.047-0.002,0.094-0.002,0.142-0.002c0.585,0,1.196,0.185,1.739,0.35c1.373,0.437,2.884,1.09,4.181,1.672
				c1.362,0.614,2.874,1.337,4.624,2.207c2.524,1.258,5.381,2.747,8.493,4.425l1.823,0.998c0.334,0.184,0.806,0.289,1.294,0.289
				c0.488,0,0.96-0.106,1.296-0.289l1.824-0.999c3.111-1.677,5.968-3.166,8.492-4.424c1.75-0.87,3.262-1.592,4.625-2.207
				c1.296-0.582,2.806-1.235,4.183-1.674c0.565-0.171,1.15-0.348,1.735-0.348c0.047,0,0.094,0,0.146,0.002l0.137,0.01l0.055,0.003
				l0.05,0.025c0.15,0.076,0.366,0.195,0.482,0.264l0.099,0.06l0.328,0.195l0.212,0.127l0.631,0.377
				c-0.734-12.506-11.69-25.797-24.124-25.797c-0.022,0-0.044,0.001-0.067,0.001c-0.023,0-0.046-0.001-0.067-0.001
				c-12.391,0-23.312,13.2-24.113,25.669l0.415-0.249L119.524,108.098z"/>
			<path fill="#0066A0" d="M167.013,109.119l-0.681-0.336l-0.17-0.085c-0.201-0.099-0.528-0.279-0.764-0.42l-0.149,0.006
				c-0.458,0.011-1.022,0.222-1.56,0.434c-1.297,0.529-2.781,1.319-3.93,1.946c-1.289,0.708-2.724,1.537-4.389,2.537
				c-2.403,1.444-5.115,3.14-8.061,5.044c-2.132,1.395-2.76,1.859-2.766,1.864c-0.41,0.305-0.959,0.473-1.544,0.473
				c-0.532,0-1.037-0.142-1.422-0.4c-0.008-0.005-0.795-0.533-2.938-1.936c-2.946-1.904-5.659-3.6-8.062-5.044
				c-1.665-0.999-3.1-1.829-4.389-2.537c-1.148-0.628-2.633-1.417-3.927-1.945c-0.541-0.214-1.105-0.424-1.566-0.435l-0.145-0.006
				c-0.237,0.141-0.563,0.321-0.765,0.42l-0.169,0.085l-0.68,0.336c-0.028,0.014-0.048,0.024-0.07,0.034
				c-0.009,0.258-0.021,0.516-0.021,0.772c0,12.874,16.154,21.119,24.165,21.119c0.022,0,0.044,0,0.067,0c0.023,0,0.044,0,0.067,0
				c8.01,0,24.166-8.246,24.166-21.119c0-0.234-0.013-0.471-0.021-0.707C167.225,109.218,167.173,109.199,167.013,109.119z"/>
		</g>
		<g>
			<g>
				<path fill="#0066A0" d="M51.19,167.297c0,0,51.445,15.431,67.398,20.119c15.942,4.686,24.654-1.69,24.654-1.69
					s44.076-25.074,46.941-26.703c2.872-1.635,10.039-5.712,4.942-14.674c-5.1-8.966-13.398-1.865-13.398-1.865
					s-19.729,11.462-30.12,17.373c0.49,7.282-2.693,10.402-8.046,12.923c-5.396,2.545-13.807,0.031-13.807,0.031l-16.393-4.506
					c0,0-5.172-1.906-4.351-5.351c1.078-4.527,5.886-2.043,5.886-2.043l19.905,5.637c0,0,7.893,1.998,10.158-3.695
					c3.226-8.095-5.439-10.473-5.439-10.473s-4.762-2.126-23.692-8.593c0,0-36.037-16.162-46.59-3.752
					C58.899,152.189,51.19,167.297,51.19,167.297z"/>
			</g>
		</g>
		<g>
			<path fill="#0066A0" d="M125,4.956C58.702,4.956,4.956,58.701,4.956,125c0,66.299,53.746,120.044,120.044,120.044
				c66.299,0,120.044-53.745,120.044-120.044C245.044,58.701,191.299,4.956,125,4.956z M125,236.408
				c-61.529,0-111.407-49.88-111.407-111.409C13.592,63.47,63.471,13.592,125,13.592c61.53,0,111.408,49.878,111.408,111.408
				C236.408,186.529,186.53,236.408,125,236.408z"/>
		</g>
	</g>
</g>
</svg>
