<?xml version="1.0" encoding="utf-8"?>
<!-- Generator: Adobe Illustrator 17.0.2, SVG Export Plug-In . SVG Version: 6.00 Build 0)  -->
<!DOCTYPE svg PUBLIC "-//W3C//DTD SVG 1.1//EN" "http://www.w3.org/Graphics/SVG/1.1/DTD/svg11.dtd">
<svg version="1.1" xmlns="http://www.w3.org/2000/svg" xmlns:xlink="http://www.w3.org/1999/xlink" x="0px" y="0px" width="250px"
	 height="250px" viewBox="0 0 250 250" enable-background="new 0 0 250 250" xml:space="preserve">
<g id="Layer_1">
</g>
<g id="Layer_2">
</g>
<g id="Layer_3">
	<defs>
		<circle id="SVGID_11_" cx="125.996" cy="-3935.75" r="102.06"/>
	</defs>
	<clipPath id="SVGID_2_">
		<use xlink:href="#SVGID_11_"  overflow="visible"/>
	</clipPath>
</g>
<g id="Layer_4">
	<g>
		<path fill="#010101" d="M217.173,55.361L141.12,10.252c-7.538-4.475-20.235-4.129-27.855,0.202l-77.982,44.56
			c-7.625,4.313-14.257,15.493-14.392,24.256l-1.969,90.23c-0.149,8.765,4.842,21.412,12.382,25.882l76.053,45.114
			c7.538,4.472,21.046,2.762,28.671-1.577l78.786-45.916c7.629-4.324,14.022-15.103,14.164-23.877l1.506-89.441
			C230.63,70.918,224.711,59.836,217.173,55.361z M217.215,164.211c-0.128,7.788-5.799,17.358-12.575,21.195l-69.939,40.759
			c-6.767,3.852-18.758,5.37-25.45,1.4l-67.509-40.045c-6.694-3.967-11.127-15.194-10.992-22.98l1.75-80.093
			c0.117-7.775,6.005-17.704,12.77-21.531l69.226-39.558c6.765-3.843,18.036-4.144,24.728-0.177l67.509,40.048
			c6.692,3.967,11.949,13.809,11.82,21.587L217.215,164.211z"/>
		<path fill="#010101" d="M203.907,66.778l-64.182-39.077c-6.36-3.874-17.152-3.706-23.671-0.1l-66.7,37.097
			c-6.519,3.595-12.261,13.03-12.46,20.472l-2.561,76.646c-0.213,7.452,3.905,18.244,10.269,22.118l64.177,39.075
			c6.364,3.874,17.856,2.554,24.38-1.059l67.394-38.245c6.526-3.6,12.062-12.695,12.27-20.144l2.153-75.989
			C215.184,80.131,210.266,70.654,203.907,66.778z"/>
		<path fill="#FFFFFF" d="M125.253,41.009c-45.389,0-82.186,36.796-82.186,82.189c0,45.391,36.798,82.189,82.186,82.189
			c45.395,0,82.191-36.798,82.191-82.189C207.444,77.805,170.648,41.009,125.253,41.009z M125.253,198.754
			c-41.727,0-75.552-33.83-75.552-75.556c0-41.727,33.825-75.554,75.552-75.554c41.729,0,75.557,33.827,75.557,75.554
			C200.81,164.925,166.982,198.754,125.253,198.754z"/>
		<path fill="#FFFFFF" d="M125.253,53.425c-38.532,0-69.773,31.236-69.773,69.773c0,38.535,31.24,69.77,69.773,69.77
			c38.539,0,69.775-31.236,69.775-69.77C195.028,84.661,163.792,53.425,125.253,53.425z"/>
		
			<rect x="158.841" y="104.982" transform="matrix(0.6722 -0.7404 0.7404 0.6722 -48.2605 164.7203)" fill="#231F20" width="6.074" height="63.75"/>
		
			<rect x="85.985" y="104.983" transform="matrix(-0.6722 -0.7404 0.7404 -0.6722 47.5308 294.7606)" fill="#231F20" width="6.074" height="63.749"/>
		<g>
			<polygon fill="#231F20" points="63.824,98.771 82.89,98.771 82.89,105.35 88.585,105.35 88.585,50.999 95.6,50.999 95.6,44.863 
				107.875,44.863 107.875,50.999 115.105,50.999 115.105,75.325 127.157,75.325 127.157,81.459 145.346,81.459 145.346,88.031 
				158.059,88.031 158.059,93.953 163.978,93.953 163.978,100.306 170.989,100.306 170.989,142.602 163.754,142.602 
				163.754,161.665 157.837,161.665 157.837,179.858 94.945,179.858 94.945,161.665 88.585,161.665 88.585,149.176 82.673,149.176 
				82.673,136.907 76.539,136.907 76.539,124.635 70.401,124.635 70.401,118.058 63.824,118.058 			"/>
			<polygon fill="#FFFFFF" points="82.017,111.483 88.372,111.483 88.372,132.301 95.383,132.301 95.383,50.999 107.875,50.999 
				107.875,106.882 114.666,106.882 114.666,81.9 127.157,81.9 127.157,106.003 133.513,106.003 133.513,88.253 145.346,88.253 
				145.346,111.92 151.263,111.92 151.263,94.172 158.059,94.172 158.059,100.084 163.978,100.084 163.978,142.602 157.62,142.602 
				157.62,161.665 151.701,161.665 151.701,173.496 101.081,173.496 101.081,161.665 94.945,161.665 94.945,148.957 88.585,148.957 
				88.585,136.464 82.673,136.464 82.673,123.977 76.539,123.977 76.539,117.617 71.056,117.617 71.056,105.35 82.236,105.35 			"/>
		</g>
		
			<rect x="109.457" y="110.275" transform="matrix(3.450672e-04 -1 1 3.450672e-04 -46.596 297.62)" fill="#231F20" width="32.213" height="123.683"/>
		
			<text transform="matrix(1 0 0 1 71.1471 183.0675)" fill="#FFFFFF" font-family="'HelveticaNeue-CondensedBold'" font-size="19.7966">INTERNET DAY</text>
		
			<text transform="matrix(1 0 0 1 71.1471 166.0539)" fill="#FFFFFF" font-family="'HelveticaNeue-CondensedBold'" font-size="6.4371">NATIONAL</text>
	</g>
</g>
</svg>
