<?xml version="1.0" encoding="utf-8"?>
<!-- Generator: Adobe Illustrator 17.0.2, SVG Export Plug-In . SVG Version: 6.00 Build 0)  -->
<!DOCTYPE svg PUBLIC "-//W3C//DTD SVG 1.1//EN" "http://www.w3.org/Graphics/SVG/1.1/DTD/svg11.dtd">
<svg version="1.1" xmlns="http://www.w3.org/2000/svg" xmlns:xlink="http://www.w3.org/1999/xlink" x="0px" y="0px" width="250px"
	 height="250px" viewBox="0 0 250 250" enable-background="new 0 0 250 250" xml:space="preserve">
<g id="Layer_1">
</g>
<g id="Layer_2">
</g>
<g id="Layer_3">
	<defs>
		<circle id="SVGID_11_" cx="125.996" cy="-2324.932" r="102.06"/>
	</defs>
	<clipPath id="SVGID_2_">
		<use xlink:href="#SVGID_11_"  overflow="visible"/>
	</clipPath>
</g>
<g id="Layer_4">
	<g>
		<path fill="#0066A0" d="M124.999,4.956C58.701,4.956,4.956,58.701,4.956,125c0,66.299,53.745,120.044,120.043,120.044
			c66.299,0,120.044-53.745,120.044-120.044C245.044,58.701,191.299,4.956,124.999,4.956z M124.999,236.408
			c-61.528,0-111.407-49.879-111.407-111.408c0-61.53,49.879-111.408,111.407-111.408c61.53,0,111.409,49.878,111.409,111.408
			C236.408,186.529,186.529,236.408,124.999,236.408z"/>
	</g>
	<path fill="#0066A0" d="M203.91,87.692c-0.216-0.685-1.121-0.288-1.541-0.75c-0.194-0.213-0.179-0.878-0.34-1.24
		c-0.269-0.609-0.922-0.735-1.202-1.317c-0.343-0.712-0.339-1.649-0.753-2.482c-0.307-0.622-0.632-1.776-1.239-1.991
		c-1.241-0.441-1.314,1.177-2.256,1.052c-0.562-0.074-0.51-1.035-1.128-1.016c-0.216,0.008-0.449,0.277-0.601,0.526
		c-1.045,1.71-0.743,5.059-1.466,7.107c-0.265,0.752-0.511,1.485-0.789,2.067c-0.406,0.846-1.482,1.188-2.558,1.504
		c-0.822,0.242-1.723,0.45-2.555,0.715c-1.68,0.533-3.798,0.693-4.777,1.803c-0.255,0.293-0.445,0.679-0.638,0.978
		c-0.703,1.098-1.311,1.74-2.029,2.894c0.215,0.505,0.367,0.735,0.451,1.165c0.359,1.875-1.729,2.713-3.234,2.783
		c-0.602,0.028-1.137-0.265-1.766-0.263c-0.751,0-2.189,0.866-2.181,1.578c0.009,0.572,0.835,0.692,0.828,1.279
		c-0.005,0.36-0.708,0.944-1.015,1.279c-0.41,0.445-0.806,0.798-1.129,1.165c-0.377,0.431-0.712,0.871-1.09,1.204
		c-0.389,0.342-0.889,0.562-1.351,0.94c-0.426,0.342-0.714,0.808-1.167,1.126c-0.44,0.31-0.911,0.631-1.429,0.866
		c-1.246,0.561-4.296,0.87-4.812-0.489c-0.379-0.997,0.431-2.724,0.977-3.009c0.271-0.141,0.547-0.046,0.903-0.225
		c0.531-1.009,0.174-2.207-0.114-3.27c-0.209-0.779-0.525-2.444-1.503-2.482c-0.411-0.015-0.729,0.252-0.978,0.527
		c-0.461,0.511-0.946,2.053-1.766,1.804c-0.692-0.21-0.189-1.617,0-1.993c0.34-0.683,1.097-0.971,1.316-1.616
		c0.311-0.918-0.389-1.537-0.49-2.406c-0.067-0.597,0.128-1.236,0.075-1.767c-0.07-0.734-0.499-1.115-0.788-1.654
		c-0.031-0.712-0.132-1.076-0.527-1.279c-0.218-0.112-0.79-0.023-1.241-0.188c-0.577-0.213-0.513-0.892-1.052-0.979
		c-0.516-0.081-0.883,0.419-1.464,0.34c-0.575-0.078-0.882-0.775-1.356-0.977c-0.4-0.171-1.128-0.25-1.503-0.488
		c-0.594-0.378-0.969-1.081-1.503-1.691c-0.483-0.553-0.969-1.57-1.542-1.656c-0.458-0.066-0.883,0.19-1.353,0.338
		c-0.51,0.163-1.034,0.151-1.43,0.377c-0.19,0.374,0.052,1.18-0.187,1.503c0,0.038-0.03,0.045-0.038,0.076
		c-2.192-0.3-3.553-0.652-4.925-1.692c-0.647-0.49-1.221-0.958-1.579-1.728c-0.362-0.779-0.155-1.822-0.6-2.745
		c-0.295-0.607-0.806-0.346-1.468-0.451c-0.782-0.125-1.443-0.924-2.367-1.014c-0.403-0.041-0.816,0.068-1.204,0
		c-0.682-0.122-1.025-1.037-1.654-1.205c-0.604-0.16-1.441,0.058-1.993-0.075c-0.39-0.093-0.761-0.308-1.165-0.413
		c-1.21-0.313-2.755-0.05-4.209,0c-4.506,0.155-9.153,0.054-13.497,0.075c-2.543,0.012-5.089,0.037-7.63,0.131
		c-9.407,0.351-18.767-1.169-28.069-2.352c-4.541-0.577-9.087-1.105-13.627-1.689c-0.101-0.013-2.506-0.338-2.501-0.366
		c0.019-0.104,0.038-0.208,0.058-0.311c-1.466-0.314-2.947-0.612-4.398-0.94c-0.001,0.05,0.018,0.082,0.038,0.112
		c0.455,1.013-0.24,2.048-1.203,2.031c-0.518-0.01-0.686-0.334-1.165-0.451c0.323,2.559,0.141,4.981-0.226,7.256
		c-0.317,1.966-0.712,3.888-1.241,5.601c-0.076,0.245-0.224,0.461-0.301,0.714c-0.042,0.141-0.041,0.417-0.112,0.639
		c-0.083,0.258-0.301,0.502-0.414,0.791c-0.359,0.912-0.561,1.817-1.015,2.594c-0.587,1.004-1.399,2.043-1.768,3.083
		c-0.246,0.691-0.308,1.339-0.15,2.029c0.331,1.447,0.29,2.811-0.075,4.21c-0.17,0.652-0.323,1.381-0.564,1.88
		c-0.327,0.676-1.103,1.228-1.354,2.069c-0.135,2.512-0.405,5.497,0.301,7.631c0.22,0.665,0.677,1.095,0.977,1.692
		c0.595,1.179,0.693,2.973,0.826,4.586c0.069,0.828,0.252,1.566,0.414,2.294c0.174,0.779,0.273,1.506,0.489,2.217
		c0.635,2.1,1.438,3.985,2.443,5.678c1.296,2.176,3.61,3.688,5.489,5.337c1.062,0.933,1.804,1.646,2.407,3.009
		c0.519,1.169,0.949,2.706,2.744,2.669c0.003-0.012,0.004-0.022,0.006-0.034c0.416,0.152,0.883,0.241,1.409,0.241
		c0.338,0,0.64-0.054,0.928-0.125c0.235,0.058,0.487,0.095,0.751,0.111c0.149,0.116,0.301,0.228,0.474,0.32
		c0.25,0.242,0.542,0.449,0.873,0.611c-0.002,0.013-0.003,0.026-0.005,0.039c2.282,1.606,4.697,3.012,7.092,4.441
		c2.125,1.266,4.199,2.75,6.578,3.509c1.228,0.393,2.508,0.636,3.79,0.38c1.254-0.251,2.115-1.065,3.255-1.562
		c1.099-0.478,2.564,0.163,3.721,0.188c0.471,0.01,1.136-0.119,1.505,0.036c1.093,0.469,2.144,1.864,2.895,2.709
		c0.879,0.988,1.985,2.027,2.519,3.081c0.607,1.2,0.579,3.014,1.654,3.948c0.699,0.608,1.735,1.059,2.444,1.766
		c0.256,0.258,0.517,0.572,0.865,0.564c0.64-0.014,1.143-0.8,1.428-1.315c0.336-0.607,0.505-1.497,1.015-1.73
		c0.477-0.218,1.714-0.06,2.369,0c0.768,0.071,1.443,0.202,1.916,0.49c0.949,0.577,1.644,1.843,1.993,2.856
		c0.48,1.393,0.765,2.381,1.466,3.346c0.315,0.436,0.628,0.878,1.053,1.354c0.353,0.397,1.001,0.808,1.164,1.279
		c0.21,0.598-0.049,1.412,0.039,1.992c0.108,0.722,0.654,1.468,1.126,1.954c1.071,1.107,2.65,1.582,4.211,1.955
		c0.72,0.172,1.448,0.739,2.407,0.488c0.09-1.184-0.495-2.046-0.639-3.119c-0.05-0.364-0.208-0.637-0.302-0.978
		c-0.148-0.537,0.282-1.371,0.488-1.994c0.206-0.621,0.421-1.067,0.715-1.579c0.582-1.012,1.247-1.994,2.143-2.48
		c1.298-0.71,2.946-0.867,4.135-1.767c0.538-0.406,0.89-0.979,1.428-1.466c0.477-0.433,1.157-0.826,1.768-1.129
		c1.267-0.628,2.928-0.769,4.926-0.864c1.856-0.088,3.995-0.123,4.924,0.825c0.299,0.305,0.37,0.928,0.678,1.091
		c0.864,0.466,2.737,0.015,3.533-0.301c0.517-0.203,0.943-0.46,1.279-0.79c0.304-0.294,0.803-0.859,0.789-1.277
		c-0.015-0.512-0.774-0.66-0.789-1.165c-0.007-0.258,0.176-0.352,0.339-0.565c0.164-0.214,0.212-0.442,0.337-0.563
		c0.466-0.447,1.654-0.672,2.37-0.789c1.913-0.311,3.956-0.378,6.016-0.378c1.13,0,2.213-0.094,3.043,0.151
		c0.99,0.294,1.278,1.389,2.106,1.692c0.831,0.305,1.804,0.018,2.294-0.338c0.484-0.352,0.614-0.931,1.053-1.167
		c0.578-0.309,1.571-0.132,2.143,0.264c0.705,0.491,1.283,1.323,1.994,2.03c0.657,0.659,1.558,1.337,1.879,2.143
		c0.46,1.16-0.365,2.332-0.075,3.382c0.238,0.877,0.743,1.287,1.277,2.071c0.277,0.403,0.419,0.641,0.752,0.901
		c0.296,0.229,0.679,0.38,1.017,0.676c0.646,0.569,0.775,2.16,1.618,2.67c0.267,0.161,0.858,0.118,1.126,0.226
		c1.085,0.431,1.075,2.016,1.993,2.519c0.812,0.443,1.856-0.085,2.144-0.604c0.259-0.465,0.187-1.177,0.187-1.953
		c0-1.396,0.235-2.665-0.037-3.835c-0.125-0.533-0.442-1.056-0.638-1.429c-0.737-1.388-1.392-2.74-2.143-4.023
		c-0.236-0.4-0.613-0.823-0.791-1.277c-0.15-0.39-0.18-0.746-0.299-1.055c-0.405-1.047-1.029-1.678-1.616-2.555
		c-0.738-1.103-1.316-2.394-1.655-3.872c-0.389-1.694-0.026-3.109,0.45-4.625c1.191-3.79,4.54-6.846,7.066-9.849
		c0.935-1.097,1.868-2.648,3.123-3.345c0.344-0.192,0.715-0.353,1.09-0.526c0.336-0.158,0.786-0.275,1.09-0.527
		c0.358-0.296,0.574-0.916,0.789-1.466c0.22-0.559,0.47-1.21,0.527-1.768c0.065-0.633-0.171-1.264-0.036-1.842
		c-0.581-1.417-1.784-2.431-1.505-4.399c0.115-0.811,0.539-1.51,0.715-2.294c0.176-0.786,0.312-1.829,0.112-2.744
		c-0.006-0.023,0.008-0.053,0-0.076c-0.207-0.563-0.738-1.591-0.376-2.48c0.1-0.244,0.407-0.45,0.641-0.64
		c0.247-0.2,0.436-0.439,0.601-0.677c0.764-1.095,1.485-3.282,1.053-5.15c-0.076-0.325-0.29-0.626-0.339-0.977
		c-0.057-0.418,0.095-0.51,0.263-0.789c0.188-0.314,0.252-0.522,0.451-0.715c0.87-0.842,2.091-1.435,3.308-1.879
		c0.429-0.156,0.939-0.204,1.353-0.414c0.57-0.287,0.856-0.934,1.317-1.429c0.415-0.444,1.034-0.61,1.28-0.977
		c0.711-1.065-0.832-1.829-1.241-2.407c-0.265-0.369-0.701-1.144-0.677-1.766c0.017-0.49,0.318-1.095,0.45-1.542
		c0.169-0.565,0.285-1.107,0.49-1.54c0.447-0.953,1.28-1.482,1.917-2.105c0.711-0.698,1.338-1.348,2.069-1.957
		c0.724-0.602,1.449-1.208,2.292-1.766C203.271,89.212,204.201,88.615,203.91,87.692z"/>
	<g>
		<path fill="#FFFFFF" d="M120.07,150.776c2.66,0,4.824,2.164,4.824,4.824c0,2.659-2.164,4.823-4.824,4.823
			c-2.659,0-4.823-2.164-4.823-4.823C115.248,152.94,117.411,150.776,120.07,150.776 M120.07,150.044
			c-3.068,0-5.555,2.488-5.555,5.556c0,3.068,2.487,5.555,5.555,5.555c3.068,0,5.556-2.487,5.556-5.555
			C125.626,152.532,123.139,150.044,120.07,150.044L120.07,150.044z"/>
		<path fill="#FFFFFF" d="M121.877,129.778c0-0.929-0.753-1.683-1.683-1.683c-0.93,0-1.684,0.754-1.684,1.683
			c0,0.773,0.523,1.416,1.232,1.615v23.632h0.903v-23.632C121.355,131.194,121.877,130.551,121.877,129.778z"/>
		<polygon fill="#FFFFFF" points="127.984,143.041 118.784,139.842 118.784,132.42 127.984,135.62 		"/>
	</g>
	<g>
		
			<circle fill="none" stroke="#0066A0" stroke-width="7" stroke-linecap="round" stroke-dasharray="0,25.205" cx="125" cy="125" r="104.295"/>
	</g>
</g>
</svg>
