<?xml version="1.0" encoding="utf-8"?>
<!-- Generator: Adobe Illustrator 17.0.2, SVG Export Plug-In . SVG Version: 6.00 Build 0)  -->
<!DOCTYPE svg PUBLIC "-//W3C//DTD SVG 1.1//EN" "http://www.w3.org/Graphics/SVG/1.1/DTD/svg11.dtd">
<svg version="1.1" xmlns="http://www.w3.org/2000/svg" xmlns:xlink="http://www.w3.org/1999/xlink" x="0px" y="0px" width="250px"
	 height="250px" viewBox="0 0 250 250" enable-background="new 0 0 250 250" xml:space="preserve">
<g id="Layer_1">
</g>
<g id="Layer_2">
	<g>
		<g opacity="0.2">
			<path fill="#FCB034" d="M127.531,247.352l-22.517-9.182l-24.317-0.101l-17.265-17.133l-22.418-9.42l-9.42-22.417l-17.131-17.263
				l-0.104-24.322L5.18,125l9.18-22.515l0.104-24.321l17.131-17.265l9.422-22.416l22.416-9.42l17.265-17.133l24.319-0.102
				l22.516-9.182l22.517,9.182l24.318,0.102l17.266,17.133l22.415,9.42l9.42,22.417L240.6,78.164l0.102,24.321L249.883,125
				l-9.181,22.517l-0.102,24.319l-17.133,17.263l-9.422,22.417l-22.415,9.42l-17.264,17.133l-24.322,0.101L127.531,247.352z
				 M83.045,232.402l23.093,0.098l21.393,8.722l21.39-8.722l23.097-0.098l16.397-16.272l21.296-8.949l8.951-21.297l16.271-16.397
				l0.097-23.094L243.753,125l-8.723-21.392l-0.097-23.096l-16.271-16.397l-8.949-21.297l-21.296-8.949L172.02,17.598L148.924,17.5
				l-21.393-8.722L106.14,17.5l-23.095,0.098L66.647,33.87L45.35,42.818l-8.951,21.296l-16.27,16.398l-0.1,23.096L11.309,125
				l8.721,21.39l0.1,23.098l16.27,16.397l8.949,21.297l21.299,8.949L83.045,232.402z"/>
		</g>
		<path fill="#25B0E6" d="M228.161,125.001c0,55.575-45.054,100.626-100.629,100.626S26.903,180.577,26.903,125.001
			c0-55.578,45.054-100.63,100.629-100.63S228.161,69.423,228.161,125.001z"/>
		<g opacity="0.5">
			<defs>
				<circle id="SVGID_7_" opacity="0.5" cx="127.532" cy="125" r="100.321"/>
			</defs>
			<clipPath id="SVGID_2_">
				<use xlink:href="#SVGID_7_"  overflow="visible"/>
			</clipPath>
			<g opacity="0.15" clip-path="url(#SVGID_2_)">
				<g>
					
						<line fill="none" stroke="#FFFFFF" stroke-linecap="round" stroke-miterlimit="10" x1="-209.71" y1="256.948" x2="52.152" y2="-4.913"/>
					
						<line fill="none" stroke="#FFFFFF" stroke-linecap="round" stroke-miterlimit="10" x1="-188.118" y1="256.948" x2="73.745" y2="-4.913"/>
					
						<line fill="none" stroke="#FFFFFF" stroke-linecap="round" stroke-miterlimit="10" x1="-166.522" y1="256.948" x2="95.339" y2="-4.913"/>
					
						<line fill="none" stroke="#FFFFFF" stroke-linecap="round" stroke-miterlimit="10" x1="-144.931" y1="256.948" x2="116.931" y2="-4.913"/>
					
						<line fill="none" stroke="#FFFFFF" stroke-linecap="round" stroke-miterlimit="10" x1="-123.337" y1="256.948" x2="138.525" y2="-4.913"/>
					
						<line fill="none" stroke="#FFFFFF" stroke-linecap="round" stroke-miterlimit="10" x1="-101.745" y1="256.948" x2="160.118" y2="-4.913"/>
					
						<line fill="none" stroke="#FFFFFF" stroke-linecap="round" stroke-miterlimit="10" x1="-80.151" y1="256.948" x2="181.709" y2="-4.913"/>
					
						<line fill="none" stroke="#FFFFFF" stroke-linecap="round" stroke-miterlimit="10" x1="-58.557" y1="256.948" x2="203.304" y2="-4.913"/>
					
						<line fill="none" stroke="#FFFFFF" stroke-linecap="round" stroke-miterlimit="10" x1="-36.964" y1="256.948" x2="224.898" y2="-4.913"/>
					
						<line fill="none" stroke="#FFFFFF" stroke-linecap="round" stroke-miterlimit="10" x1="-15.372" y1="256.948" x2="246.491" y2="-4.913"/>
				</g>
				<g>
					
						<line fill="none" stroke="#FFFFFF" stroke-linecap="round" stroke-miterlimit="10" x1="-198.913" y1="256.948" x2="62.948" y2="-4.913"/>
					
						<line fill="none" stroke="#FFFFFF" stroke-linecap="round" stroke-miterlimit="10" x1="-177.32" y1="256.948" x2="84.541" y2="-4.913"/>
					
						<line fill="none" stroke="#FFFFFF" stroke-linecap="round" stroke-miterlimit="10" x1="-155.727" y1="256.948" x2="106.135" y2="-4.913"/>
					
						<line fill="none" stroke="#FFFFFF" stroke-linecap="round" stroke-miterlimit="10" x1="-134.134" y1="256.948" x2="127.728" y2="-4.913"/>
					
						<line fill="none" stroke="#FFFFFF" stroke-linecap="round" stroke-miterlimit="10" x1="-112.54" y1="256.948" x2="149.321" y2="-4.913"/>
					
						<line fill="none" stroke="#FFFFFF" stroke-linecap="round" stroke-miterlimit="10" x1="-90.947" y1="256.948" x2="170.915" y2="-4.913"/>
					
						<line fill="none" stroke="#FFFFFF" stroke-linecap="round" stroke-miterlimit="10" x1="-69.354" y1="256.948" x2="192.507" y2="-4.913"/>
					
						<line fill="none" stroke="#FFFFFF" stroke-linecap="round" stroke-miterlimit="10" x1="-47.761" y1="256.948" x2="214.101" y2="-4.913"/>
					
						<line fill="none" stroke="#FFFFFF" stroke-linecap="round" stroke-miterlimit="10" x1="-26.169" y1="256.948" x2="235.693" y2="-4.913"/>
					
						<line fill="none" stroke="#FFFFFF" stroke-linecap="round" stroke-miterlimit="10" x1="-4.574" y1="256.948" x2="257.288" y2="-4.913"/>
				</g>
				<g>
					
						<line fill="none" stroke="#FFFFFF" stroke-linecap="round" stroke-miterlimit="10" x1="6.221" y1="256.948" x2="268.082" y2="-4.913"/>
					
						<line fill="none" stroke="#FFFFFF" stroke-linecap="round" stroke-miterlimit="10" x1="27.815" y1="256.948" x2="289.676" y2="-4.913"/>
					
						<line fill="none" stroke="#FFFFFF" stroke-linecap="round" stroke-miterlimit="10" x1="49.409" y1="256.948" x2="311.271" y2="-4.913"/>
					
						<line fill="none" stroke="#FFFFFF" stroke-linecap="round" stroke-miterlimit="10" x1="71.001" y1="256.948" x2="332.864" y2="-4.913"/>
					
						<line fill="none" stroke="#FFFFFF" stroke-linecap="round" stroke-miterlimit="10" x1="92.594" y1="256.948" x2="354.455" y2="-4.913"/>
					
						<line fill="none" stroke="#FFFFFF" stroke-linecap="round" stroke-miterlimit="10" x1="114.187" y1="256.948" x2="376.049" y2="-4.913"/>
					
						<line fill="none" stroke="#FFFFFF" stroke-linecap="round" stroke-miterlimit="10" x1="135.78" y1="256.948" x2="397.643" y2="-4.913"/>
					
						<line fill="none" stroke="#FFFFFF" stroke-linecap="round" stroke-miterlimit="10" x1="157.376" y1="256.948" x2="419.237" y2="-4.913"/>
					
						<line fill="none" stroke="#FFFFFF" stroke-linecap="round" stroke-miterlimit="10" x1="178.967" y1="256.948" x2="440.828" y2="-4.913"/>
					
						<line fill="none" stroke="#FFFFFF" stroke-linecap="round" stroke-miterlimit="10" x1="200.56" y1="256.948" x2="462.422" y2="-4.913"/>
				</g>
				<g>
					
						<line fill="none" stroke="#FFFFFF" stroke-linecap="round" stroke-miterlimit="10" x1="17.019" y1="256.948" x2="278.879" y2="-4.913"/>
					
						<line fill="none" stroke="#FFFFFF" stroke-linecap="round" stroke-miterlimit="10" x1="38.612" y1="256.948" x2="300.473" y2="-4.913"/>
					
						<line fill="none" stroke="#FFFFFF" stroke-linecap="round" stroke-miterlimit="10" x1="60.204" y1="256.948" x2="322.067" y2="-4.913"/>
					
						<line fill="none" stroke="#FFFFFF" stroke-linecap="round" stroke-miterlimit="10" x1="81.798" y1="256.948" x2="343.66" y2="-4.913"/>
					
						<line fill="none" stroke="#FFFFFF" stroke-linecap="round" stroke-miterlimit="10" x1="103.392" y1="256.948" x2="365.253" y2="-4.913"/>
					
						<line fill="none" stroke="#FFFFFF" stroke-linecap="round" stroke-miterlimit="10" x1="124.985" y1="256.948" x2="386.846" y2="-4.913"/>
					
						<line fill="none" stroke="#FFFFFF" stroke-linecap="round" stroke-miterlimit="10" x1="146.578" y1="256.948" x2="408.44" y2="-4.913"/>
					
						<line fill="none" stroke="#FFFFFF" stroke-linecap="round" stroke-miterlimit="10" x1="168.169" y1="256.948" x2="430.033" y2="-4.913"/>
					
						<line fill="none" stroke="#FFFFFF" stroke-linecap="round" stroke-miterlimit="10" x1="189.763" y1="256.948" x2="451.625" y2="-4.913"/>
					
						<line fill="none" stroke="#FFFFFF" stroke-linecap="round" stroke-miterlimit="10" x1="211.358" y1="256.948" x2="473.219" y2="-4.913"/>
				</g>
			</g>
			<path opacity="0.2" clip-path="url(#SVGID_2_)" fill="#2F3332" d="M-11.575,187.878c0,0,30.229-22.952,90.407-11.476
				c60.179,11.476,83.969,28.55,101.884,29.67c17.913,1.119,78.091-15.954,87.048-31.349c0,0-27.15,128.753-29.669,129.034
				c-2.52,0.28-122.876,0-124.836,0c-1.958,0-100.482-20.433-103.001-23.792C7.737,276.606-11.575,187.878-11.575,187.878z"/>
			<path opacity="0.2" clip-path="url(#SVGID_2_)" fill="#2F3332" d="M-10.176,165.486c3.359-0.279,69.135-6.438,99.644,51.221
				c30.51,57.66-65.216,31.349-65.216,31.349L-10.176,165.486z"/>
			<path clip-path="url(#SVGID_2_)" fill="#4E4C4F" d="M78.832,230.703c0,0,5.318-46.463,150.026-29.949
				c0,0-9.776,34.801-17.355,35.547c-7.577,0.746-85.647,10.196-85.647,10.196L78.832,230.703z"/>
			<path clip-path="url(#SVGID_2_)" fill="#2F3332" d="M6.898,217.612c1.12-0.28,15.394-17.074,89.568,3.919
				c74.173,20.992,100.764,19.033,115.037,13.155c14.276-5.878-13.994,33.868-13.994,33.868S72.115,282.548,71.275,281.989
				C70.436,281.429,6.898,217.612,6.898,217.612z"/>
			<path opacity="0.1" clip-path="url(#SVGID_2_)" fill="#F8F8F8" d="M129.266,89.126l-1.119,5.42l-11.382,195.402h24.243
				L129.329,89.432L129.266,89.126 M128.502,88.453l0.16-0.181l-0.183,0.55L128.502,88.453 M257.668,21.781h-31.68l-94.594,62.215
				l69.909-62.215h-15.98l-54.693,61.459l40.423-61.459H160.3l-30.054,59.844l0.043-0.741l19.583-59.103h-8.704L130.81,71.946
				l2.921-50.166h-8.142l3.428,58.852l-0.257,1.241l-12.409-60.093h-8.702l20.186,60.914L97.241,21.781H86.489l40.404,61.432
				L72.222,21.781H56.251l69.901,62.205L31.574,21.781h-31.66L125.72,84.96L-64.95,21.781h-14.023v21.996l205.225,42.376
				l-205.225-11.95v25.12l205.115-11.946l-205.115,42.355v26.642l204.542-67.777l-198.088,99.488l13.425,23.253L126.143,89.504
				L-39.495,236.909l18.986,18.987L126.873,90.282L5.054,275.502l23.256,13.425l99.536-198.191L61.837,289.948h25.962
				l40.348-195.402l0.291-4.987l0.65-1.296l0.178,0.863l0.035-0.172l0.028,0.478l41.404,200.516h25.958L130.708,90.819
				l99.501,198.124l23.251-13.429L131.653,90.309l147.377,165.61l18.992-18.986L132.427,89.561l167.862,110.402v-27.299
				l-167.45-84.099l167.45,55.486v-21.993L131.887,87.284l168.402,9.81V76.432l-169.773,9.887l169.773-35.053V29.143L131.905,84.941
				L257.668,21.781"/>
		</g>
		<g>
			<path fill="#080808" d="M127.556,125.004c-0.008-0.022-0.016-0.045-0.024-0.066c-0.008,0.031-0.018,0.063-0.024,0.094
				L127.556,125.004z"/>
			<path fill="#ACACAC" d="M127.556,125.005l-0.048,0.027c0.007,0.01,0.013,0.02,0.021,0.029
				C127.538,125.042,127.545,125.023,127.556,125.005z"/>
			<path fill="#ACACAC" d="M127.528,125.061"/>
		</g>
		<g>
			<defs>
				<circle id="SVGID_9_" cx="127.508" cy="124.938" r="100.321"/>
			</defs>
			<clipPath id="SVGID_3_">
				<use xlink:href="#SVGID_9_"  overflow="visible"/>
			</clipPath>
			<path opacity="0.2" clip-path="url(#SVGID_3_)" fill="#2F3332" d="M-10.201,165.424c3.359-0.279,69.136-6.438,99.644,51.221
				c30.51,57.66-65.216,31.349-65.216,31.349L-10.201,165.424z"/>
			<path clip-path="url(#SVGID_3_)" fill="#4E4C4F" d="M78.808,230.641c0,0,5.318-46.463,150.026-29.949
				c0,0-9.776,34.801-17.355,35.547c-7.577,0.746-85.647,10.196-85.647,10.196L78.808,230.641z"/>
			<path clip-path="url(#SVGID_3_)" fill="#2F3332" d="M6.873,217.55c1.12-0.28,15.395-17.074,89.568,3.919
				c74.173,20.992,100.764,19.033,115.037,13.155c14.276-5.878-13.994,33.868-13.994,33.868S72.091,282.486,71.25,281.927
				C70.411,281.367,6.873,217.55,6.873,217.55z"/>
		</g>
		<path fill-rule="evenodd" clip-rule="evenodd" fill="#FFFFFF" d="M193.307,79.815c-10.407-16.67-32.605-21.105-49.162-9.963
			c-5.047,3.396-8.932,7.878-12.582,12.99c-1.712-1.984-3.235-3.813-4.823-5.583c-8.541-9.506-18.789-15.039-31.962-13.21
			c-14.682,2.039-27.306,10.856-29.995,28.358c-0.084,0.543-0.604,1.334-1.066,1.456c-6.799,1.785-10.743,7.447-10.626,14.936
			c0.179,11.512,4.482,21.514,11.593,30.333c10.14,12.573,23.396,20.584,38.676,25.278c4.057,1.247,7.555,2.966,10.478,6.019
			c1.648,1.722,3.512,3.239,5.289,4.837c4.035,3.628,8.076,7.247,12.159,10.909c0.355-0.278,0.644-0.479,0.902-0.711
			c14.111-12.705,28.24-25.393,42.322-38.129c5.581-5.047,11.252-10.019,15.32-16.485c2.64-4.196,4.786-8.6,6.145-13.343
			c-0.224-0.144-0.315-0.239-0.423-0.266l2.378-8.684c0.112-1.28,0.278-2.863,0.387-4.451
			C198.902,95.545,197.954,87.258,193.307,79.815z"/>
		<g>
			<g>
				<g>
					<path fill-rule="evenodd" clip-rule="evenodd" fill="#FCB034" d="M131.563,82.842c3.65-5.111,7.535-9.594,12.582-12.99
						c16.557-11.142,38.755-6.707,49.162,9.963c4.647,7.442,5.596,15.729,5.009,24.291c-0.108,1.588-0.274,3.171-0.387,4.451
						c-5.806-1.165-11.352-2.711-17-3.335c-20.549-2.271-39.886,1.086-56.823,13.734c-2.951,2.205-5.384,3.495-9.411,3.093
						c-8.869-0.885-16.57,6.39-17.275,15.275c-0.707,8.922,5.767,16.823,14.683,17.921c11.601,1.43,21.031-8.999,18.361-20.349
						c-0.284-1.207-0.166-2.036,0.781-2.962c6.405-6.269,14.012-10.519,22.458-13.245c13.788-4.451,27.766-4.831,41.849-1.448
						c0.107,0.027,0.199,0.122,0.423,0.266c-1.358,4.743-3.505,9.147-6.145,13.343c-4.068,6.466-9.739,11.438-15.32,16.485
						c-14.082,12.736-28.211,25.424-42.322,38.129c-0.259,0.232-0.547,0.433-0.902,0.711c-4.083-3.662-8.124-7.281-12.159-10.909
						c-1.777-1.598-3.641-3.116-5.289-4.837c-2.923-3.053-6.421-4.772-10.478-6.019c-15.28-4.694-28.536-12.705-38.676-25.278
						c-7.11-8.818-11.414-18.821-11.593-30.333c-0.117-7.488,3.827-13.151,10.626-14.936c0.462-0.122,0.982-0.913,1.066-1.456
						c2.69-17.502,15.314-26.319,29.995-28.358c13.173-1.83,23.421,3.704,31.962,13.21
						C128.327,79.028,129.851,80.857,131.563,82.842z M78.234,97.609c-3.841,0-7.59-0.12-11.326,0.028
						c-6.053,0.238-9.918,4.597-9.696,11.204c0.244,7.337,2.277,14.196,5.972,20.56c7.585,13.065,18.875,21.789,32.495,27.786
						c1.667,0.734,3.38,1.366,5.071,2.045c-0.096-0.534-0.312-0.813-0.569-1.049c-6.292-5.772-12.608-11.522-18.881-17.315
						c-6.566-6.062-11.453-13.262-14.253-21.773c-0.971-2.952-1.559-6.031-2.4-9.362c4.83,0,9.162,0,13.588,0
						C78.234,105.548,78.234,101.578,78.234,97.609z M100.209,104.061c0-3.342,0.037-6.685-0.014-10.026
						c-0.03-1.977-1.146-3.031-2.744-2.595c-4.303,1.171-8.584,2.417-12.872,3.64c-1.39,0.396-1.981,1.273-1.952,2.775
						c0.074,3.878,0.125,7.762-0.017,11.637c-0.074,2.039,0.881,2.897,2.644,3.379c3.788,1.033,7.557,2.133,11.335,3.196
						c2.512,0.707,3.594-0.086,3.615-2.695C100.231,110.268,100.211,107.164,100.209,104.061z"/>
					<path fill-rule="evenodd" clip-rule="evenodd" fill="#FCB034" d="M114.21,126.034c7.027,0.013,12.599,5.589,12.595,12.606
						c-0.003,7.006-5.603,12.623-12.592,12.63c-7.052,0.008-12.788-5.737-12.708-12.725
						C101.587,131.529,107.179,126.021,114.21,126.034z M106.334,138.582c-0.015,4.354,3.46,7.891,7.782,7.925
						c4.249,0.034,7.923-3.572,7.962-7.817c0.042-4.237-3.596-7.898-7.858-7.913C109.871,130.763,106.348,134.249,106.334,138.582z"
						/>
					<path fill-rule="evenodd" clip-rule="evenodd" fill="#FCB034" d="M197.019,113.26c-25.229-4.594-48.768-1.576-69.559,15.043
						c-0.464-0.507-0.951-1.09-1.491-1.619c-0.509-0.499-1.072-0.942-1.712-1.498c10.708-10.209,23.673-15.062,38.025-16.595
						C174.219,107.316,185.838,108.757,197.019,113.26z"/>
				</g>
			</g>
			<g>
				<g opacity="0.2">
					<path d="M131.284,186.168c0.355-0.278,0.644-0.479,0.902-0.711c14.111-12.705,28.24-25.392,42.322-38.129
						c5.581-5.046,11.252-10.018,15.32-16.485c2.64-4.196,4.786-8.6,6.145-13.343c-0.224-0.144-0.315-0.24-0.423-0.265
						c-14.083-3.384-28.061-3.003-41.849,1.447c-8.446,2.727-16.053,6.978-22.458,13.246c-0.002,0.001-0.003,0.002-0.004,0.004
						v54.198C131.255,186.143,131.269,186.156,131.284,186.168z"/>
					<path d="M193.307,79.809c-10.407-16.67-32.605-21.104-49.162-9.963c-5.047,3.396-8.932,7.878-12.582,12.99
						c-0.111-0.127-0.214-0.25-0.322-0.375v31.788c15.154-8.759,31.972-10.991,49.689-9.033c5.648,0.624,11.194,2.17,17,3.335
						c0.112-1.28,0.278-2.863,0.387-4.45C198.902,95.54,197.954,87.253,193.307,79.809z"/>
					<path d="M197.019,113.254c-11.181-4.503-22.8-5.943-34.736-4.669c-11.362,1.214-21.85,4.521-31.042,10.908v5.957
						C151.088,111.345,173.306,108.936,197.019,113.254z"/>
				</g>
			</g>
		</g>
		
			<rect x="92.633" y="51.211" transform="matrix(-0.707 -0.7072 0.7072 -0.707 124.5003 159.185)" fill="#FFFFFF" width="5.183" height="5.183"/>
		
			<rect x="196.683" y="152.154" transform="matrix(-0.707 -0.7072 0.7072 -0.707 230.7275 405.0791)" fill="#FFFFFF" width="5.184" height="5.183"/>
		
			<rect x="125.88" y="61.929" transform="matrix(-0.7071 -0.7071 0.7071 -0.7071 173.6959 200.9867)" fill="#FFFFFF" width="5.185" height="5.183"/>
		
			<rect x="143.988" y="188.368" transform="matrix(-0.707 -0.7072 0.7072 -0.707 115.1684 429.6316)" fill="#FFFFFF" width="5.182" height="5.182"/>
		<g>
			<path fill="#FFFFFF" d="M210.18,92.457h2.549v1.942h-2.549v2.564h-1.941v-2.564h-2.547v-1.942h2.547V89.91h1.941V92.457z"/>
		</g>
		<g>
			<path fill="#FFFFFF" d="M169.056,186.453h2.548v1.943h-2.548v2.564h-1.942v-2.564h-2.547v-1.943h2.547v-2.547h1.942V186.453z"/>
		</g>
		<g>
			<path fill="#FFFFFF" d="M90.682,190.538h2.549v1.943h-2.549v2.563H88.74v-2.563h-2.547v-1.943h2.547v-2.547h1.941V190.538z"/>
		</g>
		<g>
			<path fill="#FFFFFF" d="M172.498,53.682h2.549v1.942h-2.549v2.565h-1.941v-2.565h-2.547v-1.942h2.547v-2.547h1.941V53.682z"/>
		</g>
		<circle fill="#F7F9F9" cx="140.26" cy="44.162" r="1.903"/>
		<circle fill="#F7F9F9" cx="50.095" cy="163.203" r="1.903"/>
		<circle fill="#F7F9F9" cx="101.504" cy="178.38" r="1.903"/>
	</g>
</g>
<g id="Layer_3">
	<defs>
		<circle id="SVGID_11_" cx="125.996" cy="475.068" r="102.06"/>
	</defs>
	<clipPath id="SVGID_4_">
		<use xlink:href="#SVGID_11_"  overflow="visible"/>
	</clipPath>
</g>
<g id="Layer_4">
</g>
</svg>
