<?xml version="1.0" encoding="utf-8"?>
<!-- Generator: Adobe Illustrator 17.0.2, SVG Export Plug-In . SVG Version: 6.00 Build 0)  -->
<!DOCTYPE svg PUBLIC "-//W3C//DTD SVG 1.1//EN" "http://www.w3.org/Graphics/SVG/1.1/DTD/svg11.dtd">
<svg version="1.1" xmlns="http://www.w3.org/2000/svg" xmlns:xlink="http://www.w3.org/1999/xlink" x="0px" y="0px" width="250px"
	 height="250px" viewBox="0 0 250 250" enable-background="new 0 0 250 250" xml:space="preserve">
<g id="Layer_1">
</g>
<g id="Layer_2">
</g>
<g id="Layer_3">
	<defs>
		<circle id="SVGID_11_" cx="125.996" cy="-3024.932" r="102.06"/>
	</defs>
	<clipPath id="SVGID_2_">
		<use xlink:href="#SVGID_11_"  overflow="visible"/>
	</clipPath>
</g>
<g id="Layer_4">
	<g>
		<g>
			<path fill="#0066A0" d="M104.844,58.242c-28.175,0-51.015,22.841-51.015,51.016c0,28.176,22.841,51.016,51.015,51.016
				c28.176,0,51.017-22.84,51.017-51.016C155.861,81.083,133.021,58.242,104.844,58.242z M104.844,154.837
				c-25.172,0-45.579-20.406-45.579-45.58c0-25.173,20.406-45.579,45.579-45.579c25.173,0,45.58,20.407,45.58,45.579
				C150.425,134.431,130.018,154.837,104.844,154.837z"/>
		</g>
		<g>
			<path fill="#0066A0" d="M181.033,127.628c9.965,0,18.072,8.107,18.072,18.072s-8.107,18.072-18.072,18.072
				c-9.965,0-18.072-8.107-18.072-18.072S171.068,127.628,181.033,127.628 M181.033,125.628c-11.085,0-20.072,8.987-20.072,20.072
				c0,11.085,8.987,20.072,20.072,20.072c11.084,0,20.072-8.987,20.072-20.072C201.105,134.615,192.117,125.628,181.033,125.628
				L181.033,125.628z"/>
		</g>
		<g>
			<path fill="#0066A0" d="M181.033,123.267c12.37,0,22.433,10.063,22.433,22.433s-10.063,22.433-22.433,22.433
				c-12.369,0-22.432-10.063-22.432-22.433S168.664,123.267,181.033,123.267 M181.033,121.267
				c-13.493,0-24.432,10.939-24.432,24.433c0,13.494,10.939,24.433,24.432,24.433c13.493,0,24.433-10.939,24.433-24.433
				C205.466,132.206,194.526,121.267,181.033,121.267L181.033,121.267z"/>
		</g>
		<circle fill="#0066A0" cx="181.119" cy="145.181" r="15.684"/>
		<line fill="#0066A0" stroke="#0066A0" stroke-width="4" x1="159.182" y1="134.772" x2="149.491" y2="129.496"/>
		<path fill="#0066A0" stroke="#0066A0" stroke-width="2" d="M104.846,155.762c13.272,0,25.189-5.786,33.383-14.965
			c-4.553-10.49-13.016-19.352-23.298-22.977c6.055-3.867,10.132-10.968,10.132-18.461c0-11.166-9.052-22.74-20.219-22.74
			S84.626,88.194,84.626,99.36c0,7.493,4.078,14.594,10.132,18.461c-10.281,3.624-18.744,12.486-23.298,22.977
			C79.655,149.976,91.572,155.762,104.846,155.762z"/>
		<g>
			<path fill="#0066A0" d="M174.111,54.1c7.505,0,13.61,6.105,13.61,13.61s-6.105,13.61-13.61,13.61
				c-7.504,0-13.61-6.105-13.61-13.61S166.607,54.1,174.111,54.1 M174.111,52.1c-8.62,0-15.61,6.989-15.61,15.61
				c0,8.621,6.989,15.61,15.61,15.61s15.61-6.989,15.61-15.61C189.721,59.088,182.731,52.1,174.111,52.1L174.111,52.1z"/>
		</g>
		<g>
			<path fill="#0066A0" d="M174.111,50.708c9.375,0,17.002,7.627,17.002,17.002c0,9.374-7.627,17.001-17.002,17.001
				c-5.567,0-10.79-2.734-13.972-7.313c-1.982-2.85-3.029-6.2-3.029-9.688C157.11,58.335,164.737,50.708,174.111,50.708
				 M174.111,48.708c-10.494,0-19.001,8.507-19.001,19.002c0,4.025,1.251,7.758,3.387,10.829c3.432,4.939,9.146,8.171,15.614,8.171
				c10.493,0,19.002-8.506,19.002-19.001C193.113,57.216,184.604,48.708,174.111,48.708L174.111,48.708z"/>
		</g>
		<circle fill="#0066A0" cx="174.178" cy="67.306" r="12.197"/>
		<path fill="none" stroke="#0066A0" stroke-width="2" d="M148.78,83.319"/>
		<line fill="none" stroke="#0066A0" stroke-width="4" x1="158.497" y1="78.539" x2="149.491" y2="84.559"/>
		<g>
			<path fill="#0066A0" d="M94.274,181.47c7.505,0,13.61,6.105,13.61,13.61c0,7.504-6.105,13.609-13.61,13.609
				c-7.504,0-13.609-6.105-13.609-13.609C80.665,187.576,86.77,181.47,94.274,181.47 M94.274,179.47
				c-8.62,0-15.609,6.989-15.609,15.61c0,8.622,6.989,15.609,15.609,15.609c8.621,0,15.61-6.988,15.61-15.609
				C109.884,186.46,102.895,179.47,94.274,179.47L94.274,179.47z"/>
		</g>
		<g>
			<path fill="#0066A0" d="M94.274,178.079c9.375,0,17.002,7.627,17.002,17.002s-7.627,17.002-17.002,17.002
				c-5.566,0-10.789-2.734-13.972-7.313c-1.982-2.851-3.029-6.202-3.029-9.689C77.273,185.706,84.9,178.079,94.274,178.079
				 M94.274,176.079c-10.493,0-19.001,8.508-19.001,19.002c0,4.025,1.252,7.758,3.387,10.83c3.432,4.938,9.146,8.171,15.614,8.171
				c10.493,0,19.002-8.507,19.002-19.002C113.276,184.587,104.768,176.079,94.274,176.079L94.274,176.079z"/>
		</g>
		<circle fill="#0066A0" cx="94.341" cy="194.677" r="12.197"/>
		<line fill="#0066A0" stroke="#0066A0" stroke-width="4" x1="99.284" y1="158.23" x2="95.9" y2="176.997"/>
		<g>
			<path fill="#0066A0" d="M125,4.956C58.702,4.956,4.956,58.701,4.956,125c0,66.299,53.745,120.044,120.043,120.044
				c66.299,0,120.044-53.745,120.044-120.044C245.044,58.701,191.298,4.956,125,4.956z M125,236.408
				c-61.529,0-111.408-49.879-111.408-111.408C13.592,63.47,63.471,13.592,125,13.592c61.53,0,111.408,49.878,111.408,111.408
				C236.408,186.529,186.529,236.408,125,236.408z"/>
		</g>
		<circle fill="none" stroke="#0066A0" stroke-width="7" stroke-linecap="round" cx="125" cy="125" r="105.258"/>
	</g>
</g>
</svg>
