<?xml version="1.0" encoding="utf-8"?>
<!-- Generator: Adobe Illustrator 17.0.2, SVG Export Plug-In . SVG Version: 6.00 Build 0)  -->
<!DOCTYPE svg PUBLIC "-//W3C//DTD SVG 1.1//EN" "http://www.w3.org/Graphics/SVG/1.1/DTD/svg11.dtd">
<svg version="1.1" xmlns="http://www.w3.org/2000/svg" xmlns:xlink="http://www.w3.org/1999/xlink" x="0px" y="0px" width="250px"
	 height="250px" viewBox="0 0 250 250" enable-background="new 0 0 250 250" xml:space="preserve">
<g id="Layer_1">
	<path fill="#25B0E6" d="M227.682,124.971c0,55.575-45.053,100.626-100.628,100.626S26.425,180.546,26.425,124.971
		c0-55.578,45.053-100.63,100.628-100.63S227.682,69.393,227.682,124.971z"/>
	<g opacity="0.5">
		<defs>
			<circle id="SVGID_1_" opacity="0.5" cx="127.054" cy="124.969" r="100.321"/>
		</defs>
		<clipPath id="SVGID_2_">
			<use xlink:href="#SVGID_1_"  overflow="visible"/>
		</clipPath>
		<g opacity="0.15" clip-path="url(#SVGID_2_)">
			<g>
				
					<line fill="none" stroke="#FFFFFF" stroke-linecap="round" stroke-miterlimit="10" x1="-210.189" y1="256.917" x2="51.673" y2="-4.944"/>
				
					<line fill="none" stroke="#FFFFFF" stroke-linecap="round" stroke-miterlimit="10" x1="-188.596" y1="256.917" x2="73.267" y2="-4.944"/>
				
					<line fill="none" stroke="#FFFFFF" stroke-linecap="round" stroke-miterlimit="10" x1="-167.002" y1="256.917" x2="94.86" y2="-4.944"/>
				
					<line fill="none" stroke="#FFFFFF" stroke-linecap="round" stroke-miterlimit="10" x1="-145.409" y1="256.917" x2="116.452" y2="-4.944"/>
				
					<line fill="none" stroke="#FFFFFF" stroke-linecap="round" stroke-miterlimit="10" x1="-123.815" y1="256.917" x2="138.046" y2="-4.944"/>
				
					<line fill="none" stroke="#FFFFFF" stroke-linecap="round" stroke-miterlimit="10" x1="-102.223" y1="256.917" x2="159.639" y2="-4.944"/>
				
					<line fill="none" stroke="#FFFFFF" stroke-linecap="round" stroke-miterlimit="10" x1="-80.629" y1="256.917" x2="181.23" y2="-4.944"/>
				
					<line fill="none" stroke="#FFFFFF" stroke-linecap="round" stroke-miterlimit="10" x1="-59.036" y1="256.917" x2="202.825" y2="-4.944"/>
				
					<line fill="none" stroke="#FFFFFF" stroke-linecap="round" stroke-miterlimit="10" x1="-37.442" y1="256.917" x2="224.419" y2="-4.944"/>
				
					<line fill="none" stroke="#FFFFFF" stroke-linecap="round" stroke-miterlimit="10" x1="-15.85" y1="256.917" x2="246.012" y2="-4.944"/>
			</g>
			<g>
				
					<line fill="none" stroke="#FFFFFF" stroke-linecap="round" stroke-miterlimit="10" x1="-199.392" y1="256.917" x2="62.47" y2="-4.944"/>
				
					<line fill="none" stroke="#FFFFFF" stroke-linecap="round" stroke-miterlimit="10" x1="-177.799" y1="256.917" x2="84.062" y2="-4.944"/>
				
					<line fill="none" stroke="#FFFFFF" stroke-linecap="round" stroke-miterlimit="10" x1="-156.206" y1="256.917" x2="105.656" y2="-4.944"/>
				
					<line fill="none" stroke="#FFFFFF" stroke-linecap="round" stroke-miterlimit="10" x1="-134.613" y1="256.917" x2="127.248" y2="-4.944"/>
				
					<line fill="none" stroke="#FFFFFF" stroke-linecap="round" stroke-miterlimit="10" x1="-113.019" y1="256.917" x2="148.843" y2="-4.944"/>
				
					<line fill="none" stroke="#FFFFFF" stroke-linecap="round" stroke-miterlimit="10" x1="-91.426" y1="256.917" x2="170.436" y2="-4.944"/>
				
					<line fill="none" stroke="#FFFFFF" stroke-linecap="round" stroke-miterlimit="10" x1="-69.834" y1="256.917" x2="192.028" y2="-4.944"/>
				
					<line fill="none" stroke="#FFFFFF" stroke-linecap="round" stroke-miterlimit="10" x1="-48.24" y1="256.917" x2="213.622" y2="-4.944"/>
				
					<line fill="none" stroke="#FFFFFF" stroke-linecap="round" stroke-miterlimit="10" x1="-26.648" y1="256.917" x2="235.215" y2="-4.944"/>
				
					<line fill="none" stroke="#FFFFFF" stroke-linecap="round" stroke-miterlimit="10" x1="-5.053" y1="256.917" x2="256.81" y2="-4.944"/>
			</g>
			<g>
				
					<line fill="none" stroke="#FFFFFF" stroke-linecap="round" stroke-miterlimit="10" x1="5.742" y1="256.917" x2="267.603" y2="-4.944"/>
				
					<line fill="none" stroke="#FFFFFF" stroke-linecap="round" stroke-miterlimit="10" x1="27.336" y1="256.917" x2="289.197" y2="-4.944"/>
				
					<line fill="none" stroke="#FFFFFF" stroke-linecap="round" stroke-miterlimit="10" x1="48.93" y1="256.917" x2="310.792" y2="-4.944"/>
				
					<line fill="none" stroke="#FFFFFF" stroke-linecap="round" stroke-miterlimit="10" x1="70.523" y1="256.917" x2="332.386" y2="-4.944"/>
				
					<line fill="none" stroke="#FFFFFF" stroke-linecap="round" stroke-miterlimit="10" x1="92.115" y1="256.917" x2="353.977" y2="-4.944"/>
				
					<line fill="none" stroke="#FFFFFF" stroke-linecap="round" stroke-miterlimit="10" x1="113.708" y1="256.917" x2="375.57" y2="-4.944"/>
				
					<line fill="none" stroke="#FFFFFF" stroke-linecap="round" stroke-miterlimit="10" x1="135.302" y1="256.917" x2="397.164" y2="-4.944"/>
				
					<line fill="none" stroke="#FFFFFF" stroke-linecap="round" stroke-miterlimit="10" x1="156.897" y1="256.917" x2="418.759" y2="-4.944"/>
				
					<line fill="none" stroke="#FFFFFF" stroke-linecap="round" stroke-miterlimit="10" x1="178.488" y1="256.917" x2="440.35" y2="-4.944"/>
				
					<line fill="none" stroke="#FFFFFF" stroke-linecap="round" stroke-miterlimit="10" x1="200.081" y1="256.917" x2="461.943" y2="-4.944"/>
			</g>
			<g>
				
					<line fill="none" stroke="#FFFFFF" stroke-linecap="round" stroke-miterlimit="10" x1="16.54" y1="256.917" x2="278.4" y2="-4.944"/>
				
					<line fill="none" stroke="#FFFFFF" stroke-linecap="round" stroke-miterlimit="10" x1="38.133" y1="256.917" x2="299.994" y2="-4.944"/>
				
					<line fill="none" stroke="#FFFFFF" stroke-linecap="round" stroke-miterlimit="10" x1="59.726" y1="256.917" x2="321.588" y2="-4.944"/>
				
					<line fill="none" stroke="#FFFFFF" stroke-linecap="round" stroke-miterlimit="10" x1="81.319" y1="256.917" x2="343.182" y2="-4.944"/>
				
					<line fill="none" stroke="#FFFFFF" stroke-linecap="round" stroke-miterlimit="10" x1="102.913" y1="256.917" x2="364.774" y2="-4.944"/>
				
					<line fill="none" stroke="#FFFFFF" stroke-linecap="round" stroke-miterlimit="10" x1="124.506" y1="256.917" x2="386.367" y2="-4.944"/>
				
					<line fill="none" stroke="#FFFFFF" stroke-linecap="round" stroke-miterlimit="10" x1="146.1" y1="256.917" x2="407.961" y2="-4.944"/>
				
					<line fill="none" stroke="#FFFFFF" stroke-linecap="round" stroke-miterlimit="10" x1="167.691" y1="256.917" x2="429.555" y2="-4.944"/>
				
					<line fill="none" stroke="#FFFFFF" stroke-linecap="round" stroke-miterlimit="10" x1="189.284" y1="256.917" x2="451.146" y2="-4.944"/>
				
					<line fill="none" stroke="#FFFFFF" stroke-linecap="round" stroke-miterlimit="10" x1="210.879" y1="256.917" x2="472.74" y2="-4.944"/>
			</g>
		</g>
		<defs>
			<filter id="Adobe_OpacityMaskFilter" filterUnits="userSpaceOnUse" x="123.965" y="62.223" width="211.515" height="105.064">
				
					<feColorMatrix  type="matrix" values="-1 0 0 0 1  0 -1 0 0 1  0 0 -1 0 1  0 0 0 1 0" color-interpolation-filters="sRGB" result="source"/>
			</filter>
		</defs>
		<mask maskUnits="userSpaceOnUse" x="123.965" y="62.223" width="211.515" height="105.064" id="SVGID_3_">
			<g filter="url(#Adobe_OpacityMaskFilter)">
				
					<linearGradient id="SVGID_4_" gradientUnits="userSpaceOnUse" x1="-586.0622" y1="176.114" x2="-586.0622" y2="70.0688" gradientTransform="matrix(-1 0 0 1 -354.082 0)">
					<stop  offset="0" style="stop-color:#FFFFFF"/>
					<stop  offset="0.1208" style="stop-color:#FBFBFB"/>
					<stop  offset="0.2458" style="stop-color:#EEEEEE"/>
					<stop  offset="0.3727" style="stop-color:#DADADA"/>
					<stop  offset="0.5009" style="stop-color:#BDBDBD"/>
					<stop  offset="0.6302" style="stop-color:#979797"/>
					<stop  offset="0.7604" style="stop-color:#696969"/>
					<stop  offset="0.8889" style="stop-color:#343434"/>
					<stop  offset="1" style="stop-color:#000000"/>
				</linearGradient>
				<path clip-path="url(#SVGID_2_)" fill="url(#SVGID_4_)" d="M131.063,75.295c3.851-13.803,16.484-23.942,31.518-23.942
					c11.126,0,20.941,5.563,26.861,14.043c2.552-0.999,5.322-1.565,8.227-1.565c9.875,0,18.249,6.337,21.331,15.161
					c6.788,2.145,12.278,7.204,15.007,13.712c5.516-2.478,12.035-3.92,19.026-3.92c17.062,0,31.33,8.545,34.964,19.996
					c2.943-3.56,8.525-5.963,14.941-5.963c6.74,0,12.557,2.659,15.361,6.514c3.109-1.166,6.628-1.834,10.371-1.834
					c12.488,0,22.613,7.331,22.613,16.376c0,9.043-10.125,16.373-22.613,16.373c-3.873,0-7.516-0.706-10.701-1.949
					c-4,9.907-29.445,17.545-60.258,17.545c-19.952,0-37.659-3.203-48.75-8.148c-6.061,13.095-19.308,22.186-34.685,22.186
					c-21.103,0-38.209-17.108-38.209-38.21c0-3.537,0.489-6.957,1.389-10.208c-0.462,0.028-0.921,0.071-1.389,0.071
					c-12.92,0-23.394-10.475-23.394-23.392C112.675,86.94,120.551,77.591,131.063,75.295z"/>
			</g>
		</mask>
		<path clip-path="url(#SVGID_2_)" mask="url(#SVGID_3_)" fill="#FFFEF8" d="M140.265,83.446
			c3.414-12.237,14.614-21.223,27.939-21.223c9.863,0,18.564,4.929,23.811,12.45c2.262-0.888,4.717-1.392,7.294-1.392
			c8.752,0,16.176,5.621,18.908,13.438c6.018,1.904,10.885,6.39,13.303,12.156c4.889-2.197,10.669-3.476,16.866-3.476
			c15.124,0,27.771,7.577,30.994,17.726c2.609-3.15,7.559-5.283,13.244-5.283c5.975,0,11.131,2.354,13.617,5.773
			c2.756-1.033,5.877-1.626,9.193-1.626c11.07,0,20.046,6.5,20.046,14.517s-8.976,14.513-20.046,14.513
			c-3.432,0-6.662-0.625-9.486-1.726c-3.547,8.78-26.102,15.553-53.416,15.553c-17.684,0-33.381-2.842-43.213-7.226
			c-5.373,11.609-17.115,19.666-30.746,19.666c-18.706,0-33.871-15.163-33.871-33.869c0-3.136,0.436-6.167,1.233-9.048
			c-0.41,0.023-0.816,0.062-1.233,0.062c-11.451,0-20.737-9.286-20.737-20.736C123.965,93.767,130.947,85.482,140.265,83.446z"/>
		<defs>
			<filter id="Adobe_OpacityMaskFilter_1_" filterUnits="userSpaceOnUse" x="-7.179" y="82.857" width="129.573" height="64.363">
				
					<feColorMatrix  type="matrix" values="-1 0 0 0 1  0 -1 0 0 1  0 0 -1 0 1  0 0 0 1 0" color-interpolation-filters="sRGB" result="source"/>
			</filter>
		</defs>
		<mask maskUnits="userSpaceOnUse" x="-7.179" y="82.857" width="129.573" height="64.363" id="SVGID_5_">
			<g filter="url(#Adobe_OpacityMaskFilter_1_)">
				
					<linearGradient id="SVGID_6_" gradientUnits="userSpaceOnUse" x1="-1189.9911" y1="152.6244" x2="-1189.9911" y2="87.6626" gradientTransform="matrix(-1 0 0 1 -1131 0)">
					<stop  offset="0" style="stop-color:#FFFFFF"/>
					<stop  offset="0.1208" style="stop-color:#FBFBFB"/>
					<stop  offset="0.2458" style="stop-color:#EEEEEE"/>
					<stop  offset="0.3727" style="stop-color:#DADADA"/>
					<stop  offset="0.5009" style="stop-color:#BDBDBD"/>
					<stop  offset="0.6302" style="stop-color:#979797"/>
					<stop  offset="0.7604" style="stop-color:#696969"/>
					<stop  offset="0.8889" style="stop-color:#343434"/>
					<stop  offset="1" style="stop-color:#000000"/>
				</linearGradient>
				<path clip-path="url(#SVGID_2_)" fill="url(#SVGID_6_)" d="M-2.83,90.865c2.358-8.455,10.098-14.667,19.307-14.667
					c6.817,0,12.83,3.406,16.456,8.604c1.563-0.612,3.26-0.96,5.039-0.96c6.049,0,11.178,3.884,13.069,9.287
					c4.157,1.314,7.521,4.415,9.192,8.4c3.38-1.519,7.374-2.402,11.656-2.402c10.451,0,19.191,5.236,21.419,12.252
					c1.802-2.18,5.223-3.655,9.151-3.655c4.13,0,7.692,1.63,9.411,3.99c1.905-0.714,4.062-1.123,6.354-1.123
					c7.65,0,13.852,4.492,13.852,10.032c0,5.54-6.202,10.029-13.852,10.029c-2.373,0-4.604-0.432-6.557-1.193
					c-2.45,6.071-18.038,10.748-36.914,10.748c-12.222,0-23.07-1.962-29.865-4.992c-3.711,8.024-11.827,13.591-21.247,13.591
					c-12.928,0-23.407-10.48-23.407-23.404c0-2.169,0.301-4.263,0.851-6.254c-0.282,0.018-0.564,0.044-0.851,0.044
					c-7.913,0-14.331-6.416-14.331-14.332C-14.095,97.998-9.271,92.27-2.83,90.865z"/>
			</g>
		</mask>
		<path clip-path="url(#SVGID_2_)" mask="url(#SVGID_5_)" fill="#FFFEF8" d="M2.807,95.859c2.09-7.495,8.952-13.002,17.115-13.002
			c6.042,0,11.372,3.019,14.587,7.625c1.386-0.542,2.89-0.85,4.468-0.85c5.363,0,9.91,3.439,11.583,8.23
			c3.687,1.167,6.668,3.915,8.148,7.447c2.996-1.348,6.537-2.127,10.334-2.127c9.264,0,17.011,4.642,18.987,10.856
			c1.598-1.929,4.629-3.237,8.112-3.237c3.66,0,6.818,1.445,8.34,3.537c1.69-0.63,3.601-0.993,5.634-0.993
			c6.781,0,12.279,3.98,12.279,8.892c0,4.91-5.498,8.894-12.279,8.894c-2.103,0-4.08-0.386-5.811-1.061
			c-2.172,5.38-15.99,9.528-32.722,9.528c-10.835,0-20.45-1.738-26.474-4.427c-3.289,7.115-10.483,12.05-18.834,12.05
			c-11.459,0-20.749-9.29-20.749-20.749c0-1.923,0.266-3.776,0.754-5.543c-0.25,0.016-0.499,0.038-0.754,0.038
			c-7.016,0-12.703-5.688-12.703-12.703C-7.179,102.179-2.903,97.105,2.807,95.859z"/>
		<path opacity="0.2" clip-path="url(#SVGID_2_)" fill="#2F3332" d="M23.613,156.42c0,0,24.674-18.734,73.793-9.367
			c49.12,9.367,68.538,23.304,83.161,24.217c14.622,0.913,63.741-13.022,71.051-25.588c0,0-22.161,105.092-24.217,105.321
			c-2.057,0.229-100.295,0-101.894,0s-82.018-16.678-84.074-19.42C39.377,228.842,23.613,156.42,23.613,156.42z"/>
		<path opacity="0.2" clip-path="url(#SVGID_2_)" fill="#2F3332" d="M24.755,138.142c2.742-0.228,56.43-5.254,81.332,41.809
			c24.902,47.064-53.231,25.588-53.231,25.588L24.755,138.142z"/>
		<path clip-path="url(#SVGID_2_)" fill="#4E4C4F" d="M97.406,191.374c0,0,4.341-37.924,122.456-24.445
			c0,0-7.979,28.405-14.165,29.015c-6.185,0.609-69.909,8.322-69.909,8.322L97.406,191.374z"/>
		<path clip-path="url(#SVGID_2_)" fill="#2F3332" d="M38.691,180.689c0.914-0.229,12.566-13.936,73.108,3.199
			c60.543,17.134,82.247,15.535,93.897,10.738c11.653-4.798-11.422,27.644-11.422,27.644S91.924,233.692,91.238,233.235
			C90.553,232.779,38.691,180.689,38.691,180.689z"/>
	</g>
	<g opacity="0.2">
		<path fill="#FCB034" d="M242.237,126.344c0.122,0.796-0.369,1.436-1.109,2.015c0.028-1.134,0.082-2.252,0.082-3.389
			c0-0.948-0.05-1.884-0.07-2.822c1.204-1.614,4.643-2.916,4.938-4.964c0.378-2.63-4.354-3.77-4.354-3.755
			c0.203,0.786-0.235,1.484-0.929,2.151c-0.173-2.096-0.398-4.175-0.682-6.231c1.059-1.722,4.302-3.392,4.392-5.452
			c0.166-2.672-4.781-3.251-4.813-3.227c0.356,0.762,0,1.511-0.637,2.261c-0.405-2.078-0.858-4.142-1.381-6.174
			c0.898-1.829,3.91-3.843,3.791-5.891c-0.133-2.676-5.313-2.634-5.244-2.634c0.461,0.711,0.21,1.497-0.322,2.319
			c-0.638-2.011-1.336-3.992-2.082-5.948c0.673-1.936,3.522-4.315,3.16-6.354c-0.663-2.542-5.591-2.006-5.586-1.99
			c0.492,0.664,0.338,1.469-0.07,2.319c-0.845-1.896-1.746-3.761-2.691-5.604c0.432-2.023,3.118-4.778,2.356-6.695
			c-0.905-2.472-5.729-1.405-5.718-1.387c0.557,0.598,0.494,1.408,0.182,2.295c-1.038-1.759-2.113-3.489-3.236-5.184
			c0.116-2.051,2.406-5.047,1.502-6.96c-1.145-2.383-5.794-0.795-5.783-0.777c0.604,0.536,0.631,1.337,0.417,2.246
			c-1.224-1.627-2.497-3.212-3.802-4.766c-0.164-2.005,1.797-5.251,0.718-7.07c-1.376-2.27-5.799-0.191-5.787-0.18
			c0.664,0.481,0.761,1.311,0.63,2.273c-1.415-1.499-2.868-2.959-4.363-4.382c-0.347-1.981,1.234-5.418-0.018-7.101
			c-1.587-2.14-5.735,0.402-5.755,0.451c0.74,0.402,0.92,1.241,0.885,2.237c-1.6-1.35-3.221-2.672-4.891-3.94
			c-0.497-1.968,0.65-5.497-0.742-7.043c-1.746-2.048-5.79,1.244-5.734,1.192c0.818,0.271,1.105,1.057,1.189,2.051
			c-1.738-1.173-3.518-2.286-5.325-3.361c-0.696-1.929,0.06-5.574-1.49-6.963c-2.101-1.582-5.632,1.911-5.615,1.92
			c0.806,0.213,1.185,0.941,1.394,1.871c-1.839-0.963-3.712-1.871-5.607-2.734c-0.911-1.855-0.529-5.677-2.312-6.695
			c-2.255-1.369-5.359,2.474-5.345,2.478c0.805,0.128,1.257,0.786,1.566,1.664c-1.901-0.734-3.826-1.42-5.779-2.051
			c-1.16-1.703-1.239-5.455-3.128-6.348c-2.386-1.14-5.032,3.005-5.016,3.008c0.79,0.039,1.306,0.622,1.702,1.441
			c-1.962-0.512-3.948-0.969-5.948-1.375c-1.341-1.518-1.857-5.15-3.817-5.9c-2.492-0.893-4.652,3.505-4.632,3.505
			c0.791-0.043,1.372,0.497,1.859,1.28c-2.022-0.287-4.061-0.515-6.116-0.695c-1.49-1.338-2.4-4.94-4.421-5.446
			c-2.575-0.64-4.232,3.953-4.216,3.953c0.789-0.119,1.432,0.372,2.011,1.115c-1.129-0.037-2.252-0.088-3.389-0.088
			c-0.951,0-1.883,0.049-2.825,0.07c-1.613-1.204-2.913-4.645-4.958-4.94c-2.633-0.375-3.774,4.357-3.757,4.357
			c0.785-0.204,1.484,0.232,2.15,0.93c-2.092,0.174-4.172,0.397-6.23,0.677c-1.725-1.055-3.395-4.3-5.451-4.385
			c-2.675-0.168-3.253,4.778-3.227,4.812c0.76-0.36,1.51-0.006,2.261,0.634c-2.08,0.405-4.143,0.862-6.182,1.38
			c-1.826-0.902-3.84-3.907-5.888-3.788c-2.674,0.128-2.629,5.309-2.631,5.245c0.713-0.463,1.501-0.216,2.316,0.323
			c-2.01,0.634-3.989,1.334-5.949,2.078c-1.932-0.673-4.311-3.52-6.346-3.157c-2.544,0.658-2.01,5.592-1.995,5.586
			c0.669-0.49,1.469-0.341,2.322,0.064c-1.898,0.85-3.768,1.75-5.61,2.694c-2.019-0.43-4.774-3.117-6.69-2.352
			c-2.473,0.905-1.402,5.723-1.388,5.717c0.599-0.555,1.405-0.497,2.29-0.18c-1.758,1.033-3.485,2.109-5.181,3.236
			c-2.052-0.122-5.043-2.407-6.954-1.505c-2.386,1.146-0.797,5.796-0.783,5.784c0.538-0.606,1.338-0.627,2.248-0.417
			c-1.629,1.225-3.212,2.499-4.771,3.806c-2.002,0.159-5.245-1.795-7.065-0.719c-2.27,1.375-0.192,5.799-0.18,5.787
			c0.483-0.664,1.309-0.759,2.272-0.631c-1.503,1.411-2.96,2.868-4.382,4.361c-1.981,0.344-5.412-1.234-7.099,0.018
			c-2.136,1.591,0.404,5.735,0.456,5.753c0.401-0.737,1.234-0.917,2.231-0.881c-1.354,1.597-2.676,3.221-3.943,4.888
			c-1.969,0.494-5.493-0.649-7.035,0.741c-2.048,1.749,1.242,5.79,1.193,5.735c0.268-0.817,1.054-1.101,2.044-1.188
			c-1.173,1.74-2.287,3.522-3.366,5.33c-1.923,0.691-5.571-0.062-6.954,1.483c-1.583,2.104,1.909,5.635,1.917,5.614
			c0.218-0.802,0.938-1.18,1.865-1.396c-0.96,1.847-1.87,3.718-2.729,5.617c-1.857,0.907-5.676,0.523-6.694,2.31
			c-1.367,2.252,2.476,5.354,2.482,5.339c0.122-0.802,0.778-1.252,1.658-1.561c-0.736,1.905-1.421,3.828-2.054,5.778
			c-1.706,1.158-5.447,1.237-6.343,3.13c-1.142,2.386,3.004,5.031,3.009,5.013c0.04-0.789,0.625-1.304,1.434-1.703
			c-0.509,1.969-0.966,3.949-1.37,5.954c-1.525,1.335-5.146,1.857-5.896,3.812c-0.896,2.49,3.498,4.653,3.503,4.635
			c-0.042-0.792,0.497-1.371,1.277-1.861c-0.29,2.023-0.52,4.068-0.697,6.122c-1.336,1.484-4.934,2.399-5.441,4.416
			c-0.639,2.575,3.954,4.232,3.954,4.214c-0.119-0.789,0.367-1.432,1.107-2.005c-0.033,1.128-0.085,2.243-0.085,3.383
			c0,0.951,0.049,1.89,0.07,2.834c-1.208,1.609-4.637,2.91-4.936,4.949c-0.375,2.633,4.357,3.772,4.356,3.758
			c-0.203-0.78,0.233-1.482,0.93-2.143c0.169,2.091,0.393,4.169,0.676,6.229c-1.061,1.719-4.298,3.392-4.383,5.446
			c-0.169,2.672,4.778,3.251,4.812,3.227c-0.356-0.762-0.006-1.508,0.631-2.258c0.408,2.078,0.861,4.142,1.382,6.181
			c-0.903,1.828-3.908,3.839-3.788,5.881c0.129,2.679,5.311,2.633,5.245,2.633c-0.463-0.71-0.212-1.496,0.323-2.31
			c0.634,2.008,1.337,3.986,2.079,5.945c-0.677,1.936-3.519,4.312-3.156,6.348c0.66,2.542,5.59,2.009,5.584,1.99
			c-0.488-0.67-0.341-1.466,0.067-2.312c0.846,1.895,1.746,3.764,2.694,5.601c-0.435,2.026-3.119,4.775-2.354,6.692
			c0.907,2.475,5.725,1.398,5.714,1.39c-0.553-0.601-0.489-1.405-0.18-2.292c1.036,1.759,2.112,3.492,3.238,5.188
			c-0.122,2.051-2.406,5.04-1.502,6.951c1.145,2.38,5.793,0.792,5.783,0.777c-0.602-0.534-0.629-1.332-0.416-2.244
			c1.222,1.631,2.496,3.212,3.802,4.773c0.16,2.002-1.793,5.244-0.718,7.064c1.376,2.27,5.799,0.191,5.787,0.18
			c-0.663-0.484-0.76-1.311-0.631-2.271c1.417,1.5,2.871,2.963,4.361,4.383c0.344,1.984-1.232,5.412,0.02,7.094
			c1.586,2.137,5.737-0.402,5.756-0.453c-0.739-0.4-0.92-1.232-0.887-2.23c1.597,1.355,3.224,2.678,4.892,3.945
			c0.492,1.969-0.652,5.494,0.742,7.033c1.745,2.049,5.789-1.242,5.734-1.191c-0.818-0.271-1.104-1.057-1.192-2.047
			c1.742,1.174,3.524,2.285,5.333,3.367c0.69,1.922-0.064,5.57,1.484,6.953c2.103,1.582,5.63-1.91,5.613-1.916
			c-0.801-0.217-1.183-0.938-1.394-1.867c1.84,0.959,3.712,1.871,5.612,2.727c0.91,1.859,0.527,5.678,2.308,6.695
			c2.257,1.369,5.36-2.471,5.344-2.48c-0.801-0.119-1.252-0.783-1.562-1.66c1.903,0.736,3.829,1.428,5.779,2.059
			c1.156,1.705,1.236,5.447,3.126,6.34c2.386,1.143,5.028-3.006,5.015-3.008c-0.789-0.041-1.303-0.623-1.702-1.434
			c1.966,0.506,3.948,0.967,5.952,1.369c1.339,1.521,1.856,5.146,3.814,5.896c2.493,0.896,4.653-3.498,4.632-3.502
			c-0.79,0.041-1.369-0.5-1.854-1.275c2.021,0.285,4.062,0.514,6.115,0.693c1.487,1.336,2.4,4.934,4.418,5.439
			c2.574,0.641,4.233-3.951,4.215-3.951c-0.789,0.119-1.433-0.369-2.007-1.107c1.123,0.027,2.246,0.086,3.384,0.086
			c0.949,0,1.886-0.049,2.832-0.072c1.607,1.205,2.912,4.641,4.951,4.936c2.636,0.375,3.773-4.357,3.756-4.354
			c-0.783,0.201-1.481-0.236-2.146-0.93c2.097-0.172,4.173-0.395,6.232-0.678c1.722,1.059,3.392,4.297,5.447,4.387
			c2.674,0.166,3.252-4.781,3.228-4.812c-0.761,0.354-1.51,0.002-2.26-0.631c2.078-0.412,4.145-0.863,6.182-1.387
			c1.827,0.902,3.837,3.906,5.883,3.787c2.676-0.127,2.632-5.305,2.636-5.24c-0.714,0.459-1.499,0.213-2.314-0.32
			c2.007-0.641,3.986-1.342,5.944-2.088c1.935,0.684,4.312,3.523,6.346,3.16c2.545-0.658,2.01-5.588,1.996-5.582
			c-0.67,0.486-1.47,0.34-2.319-0.068c1.895-0.846,3.765-1.742,5.605-2.693c2.019,0.434,4.777,3.117,6.689,2.355
			c2.471-0.904,1.406-5.727,1.39-5.717c-0.599,0.555-1.405,0.494-2.292,0.18c1.76-1.035,3.488-2.111,5.184-3.236
			c2.053,0.119,5.044,2.404,6.955,1.502c2.386-1.143,0.795-5.793,0.78-5.783c-0.535,0.605-1.335,0.631-2.246,0.418
			c1.626-1.227,3.212-2.496,4.766-3.801c2.007-0.164,5.25,1.789,7.071,0.717c2.271-1.379,0.192-5.801,0.179-5.791
			c-0.483,0.668-1.312,0.766-2.275,0.631c1.504-1.41,2.962-2.867,4.385-4.361c1.98-0.348,5.412,1.234,7.097-0.018
			c2.14-1.584-0.402-5.734-0.45-5.754c-0.402,0.738-1.239,0.918-2.235,0.881c1.351-1.596,2.671-3.219,3.941-4.888
			c1.967-0.493,5.496,0.652,7.04-0.746c2.044-1.743-1.247-5.784-1.193-5.729c-0.271,0.82-1.058,1.104-2.048,1.188
			c1.17-1.736,2.284-3.522,3.361-5.33c1.929-0.691,5.573,0.064,6.962-1.483c1.578-2.104-1.911-5.632-1.922-5.614
			c-0.213,0.802-0.937,1.186-1.866,1.394c0.961-1.841,1.866-3.712,2.73-5.61c1.852-0.914,5.681-0.527,6.695-2.313
			c1.368-2.252-2.474-5.355-2.48-5.339c-0.126,0.802-0.783,1.252-1.662,1.561c0.734-1.898,1.419-3.822,2.051-5.775
			c1.702-1.161,5.452-1.24,6.35-3.13c1.14-2.386-3.008-5.031-3.01-5.016c-0.042,0.789-0.626,1.304-1.441,1.703
			c0.512-1.962,0.968-3.946,1.373-5.948c1.518-1.341,5.151-1.859,5.901-3.818c0.896-2.49-3.502-4.653-3.503-4.632
			c0.041,0.789-0.501,1.371-1.278,1.858c0.285-2.023,0.514-4.062,0.691-6.113c1.333-1.493,4.937-2.401,5.444-4.425
			C246.829,127.99,242.237,126.329,242.237,126.344z M237.315,148.322c-0.425,2.005-0.911,3.989-1.441,5.955
			c-1.6,0.509-3.312,0.953-3.799,2.005c-0.677,1.509,0.87,3.278,1.909,4.239c-0.65,1.953-1.354,3.876-2.104,5.774
			c-1.614,0.326-3.315,0.585-3.917,1.558c-1.011,1.361,0.402,3.334,1.355,4.418c-0.865,1.868-1.773,3.715-2.741,5.528
			c-1.613,0.138-3.32,0.201-4.117,1.033c-1.141,1.27,0.086,3.422,0.922,4.604c-1.071,1.759-2.201,3.475-3.362,5.162
			c-1.658-0.072-3.402-0.225-4.232,0.546c-1.237,1.137-0.287,3.383,0.419,4.669c-1.261,1.624-2.564,3.212-3.907,4.763
			c-1.656-0.262-3.373-0.607-4.278,0.092c-1.315,0.998-0.637,3.303-0.078,4.678c-1.431,1.471-2.892,2.906-4.393,4.305
			c-1.627-0.432-3.302-0.965-4.283-0.359c-1.387,0.863-0.977,3.215-0.578,4.635c-1.586,1.305-3.213,2.557-4.867,3.779
			c-1.564-0.604-3.167-1.307-4.203-0.795c-1.441,0.779-1.353,3.09-1.147,4.494c-1.722,1.123-3.471,2.195-5.257,3.225
			c-1.461-0.756-2.952-1.609-4.017-1.213c-1.643,0.439-1.765,2.855-1.694,4.297c-1.833,0.92-3.695,1.801-5.582,2.625
			c-1.352-0.895-2.727-1.902-3.87-1.756c-1.693,0.283-2.068,2.754-2.147,4.193c-1.911,0.707-3.855,1.355-5.816,1.955
			c-1.257-1.094-2.531-2.314-3.674-2.242c-1.702,0.109-2.351,2.52-2.592,3.953c-1.975,0.484-3.968,0.908-5.98,1.285
			c-1.14-1.258-2.283-2.635-3.428-2.654c-1.687-0.055-2.601,2.258-3.006,3.664c-2.007,0.256-4.029,0.459-6.066,0.605
			c-1.006-1.371-1.998-2.867-3.146-3.023c-1.663-0.225-2.825,1.955-3.394,3.316c-0.582,0.012-1.163,0.045-1.749,0.045
			c-1.455,0-2.896-0.055-4.338-0.109c-0.858-1.479-1.675-3.08-2.813-3.352c-1.614-0.385-3.003,1.627-3.723,2.928
			c-2.028-0.195-4.047-0.438-6.045-0.736c-0.688-1.561-1.329-3.252-2.433-3.637c-1.562-0.5-3.148,1.289-4.003,2.463
			c-2.004-0.426-3.986-0.914-5.953-1.445c-0.507-1.6-0.956-3.314-2.004-3.803c-1.51-0.674-3.283,0.875-4.243,1.912
			c-1.952-0.65-3.872-1.352-5.772-2.098c-0.325-1.621-0.582-3.324-1.556-3.928c-1.367-1.01-3.34,0.408-4.423,1.361
			c-1.867-0.871-3.712-1.775-5.523-2.742c-0.139-1.615-0.204-3.318-1.036-4.119c-1.268-1.145-3.425,0.088-4.606,0.92
			c-1.755-1.07-3.471-2.197-5.161-3.359c0.075-1.66,0.23-3.406-0.544-4.238c-1.135-1.234-3.386-0.281-4.669,0.424
			c-1.625-1.256-3.21-2.561-4.761-3.9c0.26-1.662,0.603-3.381-0.093-4.285c-1.001-1.32-3.311-0.637-4.679-0.076
			c-1.47-1.43-2.91-2.889-4.303-4.395c0.433-1.627,0.967-3.303,0.358-4.285c-0.861-1.389-3.215-0.973-4.634-0.578
			c-1.307-1.585-2.56-3.212-3.78-4.864c0.6-1.564,1.31-3.167,0.8-4.206c-0.782-1.444-3.098-1.353-4.497-1.146
			c-1.123-1.719-2.197-3.471-3.223-5.251c0.752-1.463,1.604-2.956,1.21-4.025c-0.439-1.64-2.858-1.762-4.3-1.691
			c-0.919-1.835-1.799-3.69-2.622-5.58c0.893-1.35,1.904-2.728,1.755-3.87c-0.282-1.697-2.753-2.072-4.196-2.148
			c-0.701-1.911-1.351-3.855-1.952-5.812c1.092-1.259,2.312-2.535,2.246-3.682c-0.114-1.697-2.526-2.349-3.959-2.587
			c-0.483-1.975-0.905-3.971-1.284-5.981c1.257-1.141,2.639-2.283,2.653-3.429c0.056-1.686-2.255-2.6-3.662-3.002
			c-0.254-2.011-0.46-4.034-0.606-6.07c1.372-1.006,2.871-1.993,3.023-3.148c0.224-1.66-1.958-2.824-3.317-3.392
			c-0.009-0.582-0.046-1.164-0.046-1.749c0-1.454,0.056-2.896,0.111-4.34c1.475-0.852,3.083-1.676,3.354-2.812
			c0.384-1.615-1.632-3.005-2.93-3.721c0.198-2.026,0.438-4.047,0.738-6.046c1.56-0.686,3.254-1.329,3.637-2.43
			c0.498-1.569-1.291-3.153-2.459-4.001c0.422-2.008,0.91-3.992,1.438-5.958c1.601-0.506,3.317-0.953,3.805-2.002
			c0.675-1.515-0.873-3.285-1.913-4.248c0.651-1.95,1.354-3.873,2.102-5.769c1.615-0.323,3.323-0.582,3.927-1.554
			c1.007-1.365-0.407-3.341-1.361-4.426c0.865-1.867,1.775-3.711,2.741-5.521c1.613-0.141,3.322-0.207,4.119-1.039
			c1.141-1.268-0.087-3.422-0.922-4.604c1.071-1.756,2.199-3.471,3.359-5.16c1.663,0.073,3.407,0.226,4.239-0.545
			c1.236-1.137,0.282-3.386-0.42-4.669c1.257-1.627,2.56-3.212,3.902-4.763c1.658,0.262,3.378,0.603,4.282-0.092
			c1.316-1.002,0.635-3.309,0.078-4.678c1.428-1.472,2.891-2.91,4.395-4.303c1.625,0.433,3.302,0.966,4.286,0.356
			c1.382-0.865,0.971-3.215,0.575-4.632c1.583-1.308,3.213-2.56,4.867-3.782c1.56,0.604,3.166,1.311,4.199,0.799
			c1.443-0.783,1.357-3.093,1.147-4.495c1.72-1.122,3.471-2.197,5.255-3.221c1.46,0.749,2.955,1.603,4.021,1.209
			c1.64-0.438,1.765-2.858,1.694-4.297c1.833-0.923,3.69-1.804,5.581-2.627c1.35,0.893,2.726,1.905,3.869,1.755
			c1.689-0.284,2.066-2.752,2.147-4.193c1.912-0.701,3.855-1.353,5.816-1.954c1.255,1.091,2.532,2.313,3.675,2.24
			c1.697-0.109,2.348-2.517,2.592-3.949c1.973-0.488,3.969-0.908,5.98-1.289c1.143,1.262,2.281,2.639,3.427,2.654
			c1.688,0.055,2.6-2.255,3.003-3.66c2.011-0.253,4.036-0.457,6.072-0.606c1.004,1.375,1.993,2.865,3.145,3.023
			c1.664,0.222,2.822-1.957,3.389-3.316c0.587-0.009,1.166-0.045,1.753-0.045c1.458,0,2.903,0.052,4.344,0.112
			c0.852,1.475,1.67,3.075,2.807,3.346c1.617,0.384,3.003-1.627,3.719-2.928c2.033,0.201,4.051,0.439,6.052,0.743
			c0.687,1.555,1.326,3.246,2.429,3.63c1.563,0.499,3.148-1.289,4-2.453c2.006,0.423,3.989,0.911,5.956,1.435
			c0.509,1.606,0.955,3.316,2.005,3.803c1.509,0.673,3.281-0.869,4.242-1.908c1.949,0.652,3.876,1.35,5.773,2.103
			c0.323,1.612,0.583,3.315,1.554,3.919c1.364,1.008,3.337-0.402,4.422-1.356c1.868,0.866,3.715,1.773,5.525,2.74
			c0.139,1.615,0.204,3.322,1.036,4.117c1.268,1.143,3.418-0.082,4.603-0.917c1.755,1.066,3.471,2.2,5.161,3.361
			c-0.072,1.658-0.226,3.404,0.55,4.233c1.134,1.231,3.378,0.284,4.663-0.421c1.626,1.259,3.212,2.563,4.766,3.904
			c-0.262,1.661-0.602,3.374,0.095,4.282c0.998,1.316,3.305,0.634,4.671,0.076c1.474,1.432,2.912,2.892,4.308,4.394
			c-0.434,1.625-0.966,3.304-0.361,4.282c0.865,1.387,3.214,0.975,4.634,0.579c1.308,1.584,2.561,3.215,3.782,4.873
			c-0.601,1.56-1.307,3.16-0.796,4.193c0.78,1.445,3.09,1.356,4.489,1.149c1.124,1.722,2.198,3.474,3.226,5.257
			c-0.75,1.463-1.602,2.953-1.207,4.02c0.438,1.637,2.853,1.765,4.291,1.691c0.926,1.835,1.806,3.693,2.63,5.586
			c-0.895,1.347-1.901,2.722-1.754,3.867c0.283,1.686,2.747,2.066,4.188,2.146c0.703,1.911,1.355,3.858,1.956,5.817
			c-1.088,1.256-2.31,2.529-2.241,3.676c0.115,1.693,2.521,2.346,3.952,2.59c0.481,1.975,0.907,3.968,1.285,5.982
			c-1.258,1.143-2.635,2.279-2.648,3.425c-0.059,1.688,2.25,2.6,3.656,3.005c0.253,2.012,0.459,4.031,0.61,6.07
			c-1.373,1.006-2.868,1.993-3.023,3.146c-0.221,1.663,1.955,2.821,3.314,3.389c0.007,0.585,0.045,1.164,0.045,1.752
			c0,1.454-0.056,2.904-0.112,4.343c-1.474,0.854-3.073,1.673-3.35,2.81c-0.381,1.615,1.629,3.002,2.929,3.718
			c-0.199,2.033-0.439,4.05-0.74,6.049c-1.558,0.692-3.247,1.329-3.63,2.436C234.364,145.885,236.148,147.466,237.315,148.322z"/>
	</g>
	<g>
		<g>
			<path fill="#F8F8F8" d="M127.508,190.151c-0.006-0.008-0.011-0.016-0.016-0.024c0.005-0.025,0.013-0.051,0.019-0.076
				c-0.895-2.265-0.846-4.71-1.328-7.056c-2.455-11.949-6.835-23.225-12.005-34.205c-7.06-14.989-15.55-29.151-24.644-43.002
				C71.377,78.132,87.407,42.132,118.765,36.1c25.007-4.81,48.518,11.018,53.451,35.948c2.426,12.258,0.007,23.752-6.973,34.167
				c-12.637,18.859-23.744,38.516-31.589,59.898c-2.618,7.135-4.555,14.448-5.68,21.971c-0.1,0.664-0.302,1.312-0.464,1.967
				c0.007,0.017,0.013,0.036,0.02,0.054l-0.039,0.023l0.039-0.022C127.522,190.12,127.517,190.136,127.508,190.151"/>
			<path fill="#FCB034" d="M118.765,36.1c-31.359,6.032-47.388,42.032-29.231,69.687c9.094,13.852,17.584,28.013,24.644,43.002
				c5.171,10.98,9.55,22.256,12.005,34.205c0.482,2.346,0.434,4.791,1.328,7.056c0.161-0.655,0.364-1.303,0.464-1.967
				c1.125-7.523,3.062-14.836,5.68-21.971c7.845-21.382,18.951-41.039,31.589-59.898c6.979-10.415,9.399-21.908,6.973-34.167
				C167.283,47.118,143.773,31.29,118.765,36.1z"/>
			<path fill="#080808" d="M127.531,190.105c-0.007-0.018-0.013-0.036-0.02-0.054c-0.006,0.025-0.014,0.051-0.019,0.076
				L127.531,190.105z"/>
			<path fill="#ACACAC" d="M127.531,190.105l-0.039,0.022c0.005,0.008,0.01,0.016,0.016,0.024
				C127.517,190.136,127.522,190.12,127.531,190.105z"/>
			<path fill="#ACACAC" d="M127.508,190.151"/>
		</g>
		<path opacity="0.2" d="M172.055,72.058c-4.352-21.991-23.16-36.896-44.7-36.803v23.939l0.111,41.218
			c-0.038,0-0.074-0.002-0.111-0.002v89.629c0.161-0.647,0.36-1.288,0.458-1.943c1.125-7.523,3.062-14.836,5.68-21.972
			c7.846-21.382,18.952-41.039,31.589-59.898C172.061,95.809,174.481,84.315,172.055,72.058z"/>
		<g>
			<polygon fill="#FFFFFF" points="150.918,79.961 148.07,81.658 150.597,83.81 147.505,85.016 149.645,87.557 146.398,88.234 
				148.082,91.092 144.771,91.225 145.967,94.32 142.676,93.907 143.346,97.158 140.165,96.208 140.299,99.528 137.317,98.072 
				136.898,101.365 134.198,99.432 133.238,102.613 130.896,100.265 129.431,103.242 127.5,100.534 125.568,103.236 124.11,100.256 
				121.759,102.597 120.81,99.414 118.102,101.338 117.696,98.044 114.711,99.493 114.848,96.174 111.67,97.114 112.351,93.865 
				109.055,94.27 110.261,91.177 106.945,91.035 108.64,88.183 105.395,87.493 107.543,84.959 104.454,83.745 106.989,81.602 
				104.145,79.896 106.994,78.199 104.465,76.046 107.559,74.841 105.416,72.307 108.667,71.623 106.976,68.765 110.294,68.632 
				109.095,65.542 112.389,65.95 111.718,62.699 114.9,63.646 114.765,60.333 117.747,61.784 118.16,58.499 120.864,60.423 
				121.822,57.244 124.166,59.596 125.631,56.615 127.558,59.323 129.495,56.621 130.953,59.606 133.301,57.26 134.252,60.441 
				136.957,58.526 137.367,61.811 140.354,60.368 140.209,63.681 143.393,62.75 142.714,65.991 146.007,65.593 144.804,68.68 
				148.113,68.829 146.421,71.675 149.665,72.369 147.524,74.895 150.608,76.11 148.076,78.256 			"/>
		</g>
	</g>
</g>
<g id="Layer_2">
</g>
<g id="Layer_3">
	<defs>
		<circle id="SVGID_11_" cx="125.996" cy="825.068" r="102.06"/>
	</defs>
	<clipPath id="SVGID_8_">
		<use xlink:href="#SVGID_11_"  overflow="visible"/>
	</clipPath>
</g>
<g id="Layer_4">
</g>
</svg>
