<?xml version="1.0" encoding="utf-8"?>
<!-- Generator: Adobe Illustrator 17.0.2, SVG Export Plug-In . SVG Version: 6.00 Build 0)  -->
<!DOCTYPE svg PUBLIC "-//W3C//DTD SVG 1.1//EN" "http://www.w3.org/Graphics/SVG/1.1/DTD/svg11.dtd">
<svg version="1.1" id="Layer_1" xmlns="http://www.w3.org/2000/svg" xmlns:xlink="http://www.w3.org/1999/xlink" x="0px" y="0px"
	 width="50px" height="50px" viewBox="0 0 50 50" enable-background="new 0 0 50 50" xml:space="preserve">
<path fill="#FFFFFF" d="M39.209,25c0,7.849-6.363,14.209-14.209,14.209c-7.849,0-14.209-6.361-14.209-14.209
	c0-0.935,0.093-1.848,0.265-2.733H1.5v18.889c0,4.056,3.285,7.344,7.344,7.344h32.312c4.054,0,7.344-3.288,7.344-7.344V22.267
	h-9.556C39.116,23.152,39.209,24.065,39.209,25z M41.156,1.5H8.844C4.785,1.5,1.5,4.789,1.5,8.844v7.958h11.896
	c2.573-3.636,6.81-6.012,11.604-6.012c4.793,0,9.029,2.376,11.602,6.012H48.5V8.844C48.5,4.789,45.21,1.5,41.156,1.5z
	 M44.746,10.572c0,0.722-0.589,1.312-1.311,1.312H39.5c-0.72,0-1.312-0.59-1.312-1.312V6.637c0-0.722,0.591-1.312,1.312-1.312h3.936
	c0.722,0,1.311,0.59,1.311,1.312V10.572z M33.744,25c0-4.829-3.915-8.744-8.744-8.744c-4.83,0-8.744,3.915-8.744,8.744
	S20.17,33.744,25,33.744C29.829,33.744,33.744,29.829,33.744,25z"/>
</svg>
