<?xml version="1.0" encoding="utf-8"?>
<!-- Generator: Adobe Illustrator 17.0.2, SVG Export Plug-In . SVG Version: 6.00 Build 0)  -->
<!DOCTYPE svg PUBLIC "-//W3C//DTD SVG 1.1//EN" "http://www.w3.org/Graphics/SVG/1.1/DTD/svg11.dtd">
<svg version="1.1" xmlns="http://www.w3.org/2000/svg" xmlns:xlink="http://www.w3.org/1999/xlink" x="0px" y="0px" width="58px"
	 height="28.5px" viewBox="0 0 58 28.5" enable-background="new 0 0 58 28.5" xml:space="preserve">
<g id="Layer_2" display="none">
	<g id="Z97G3P_1_" display="inline">
		
			<image overflow="visible" width="1109" height="467" id="Z97G3P_2_" xlink:href="65F09B6F8CADFA52.jpg"  transform="matrix(1 0 0 1 356.4737 -18.5087)">
		</image>
	</g>
</g>
<g id="Layer_1">
	<g>
		<polygon fill="#FFFFFF" points="43.342,2.776 42.146,3.97 51.707,13.531 42.838,13.531 32.083,2.775 30.889,3.97 40.448,13.531 
			0,13.531 0,15.22 40.448,15.22 30.889,24.781 32.083,25.975 42.838,15.22 51.707,15.22 42.146,24.781 43.342,25.975 
			54.941,14.375 		"/>
	</g>
	<g>
		<path fill="#FFFFFF" d="M2.282,25.878c-0.767,0-1.459-0.084-2.076-0.701l0.795-0.795c0.402,0.402,0.926,0.458,1.3,0.458
			c0.421,0,0.86-0.14,0.86-0.505c0-0.243-0.131-0.411-0.514-0.449L1.88,23.812c-0.879-0.085-1.422-0.468-1.422-1.366
			c0-1.01,0.889-1.553,1.881-1.553c0.757,0,1.394,0.131,1.861,0.571l-0.749,0.757c-0.28-0.252-0.711-0.327-1.132-0.327
			c-0.486,0-0.691,0.225-0.691,0.468c0,0.178,0.074,0.384,0.505,0.421l0.767,0.075c0.964,0.094,1.45,0.607,1.45,1.431
			C4.35,25.364,3.433,25.878,2.282,25.878z"/>
		<path fill="#FFFFFF" d="M7.306,25.878c-0.973,0-2.18-0.523-2.18-2.497s1.207-2.488,2.18-2.488c0.674,0,1.179,0.206,1.608,0.655
			l-0.823,0.823c-0.252-0.271-0.467-0.384-0.785-0.384c-0.29,0-0.515,0.103-0.692,0.318c-0.187,0.233-0.271,0.561-0.271,1.075
			s0.085,0.852,0.271,1.085c0.178,0.215,0.402,0.318,0.692,0.318c0.318,0,0.533-0.112,0.785-0.384l0.823,0.813
			C8.484,25.663,7.979,25.878,7.306,25.878z"/>
	</g>
	<g>
		<path fill="#FFFFFF" d="M632.635,19.317c-0.513,0-0.977-0.056-1.39-0.469l0.532-0.532c0.269,0.269,0.619,0.307,0.87,0.307
			c0.282,0,0.576-0.094,0.576-0.338c0-0.163-0.088-0.276-0.344-0.3l-0.513-0.05c-0.588-0.056-0.951-0.313-0.951-0.914
			c0-0.676,0.595-1.039,1.258-1.039c0.507,0,0.932,0.088,1.245,0.382l-0.501,0.507c-0.188-0.169-0.476-0.219-0.757-0.219
			c-0.325,0-0.463,0.151-0.463,0.313c0,0.119,0.05,0.257,0.338,0.282l0.513,0.05c0.645,0.062,0.97,0.407,0.97,0.957
			C634.018,18.973,633.405,19.317,632.635,19.317z"/>
		<path fill="#FFFFFF" d="M635.997,19.317c-0.651,0-1.458-0.35-1.458-1.671c0-1.321,0.807-1.665,1.458-1.665
			c0.451,0,0.789,0.138,1.077,0.438l-0.551,0.551c-0.169-0.181-0.313-0.257-0.526-0.257c-0.194,0-0.344,0.069-0.463,0.213
			c-0.125,0.157-0.181,0.376-0.181,0.72c0,0.344,0.056,0.569,0.181,0.726c0.119,0.144,0.269,0.213,0.463,0.213
			c0.213,0,0.357-0.075,0.526-0.257l0.551,0.544C636.786,19.174,636.448,19.317,635.997,19.317z"/>
	</g>
	<path fill="#FFFFFF" d="M628.558-2.213h-13.079v27.021H642.5V11.728V-2.213H628.558z M641.638-1.352v12.218H629.42V-1.352H641.638z
		 M641.638,23.946h-25.298V-1.352h12.218v13.08h13.08V23.946z"/>
</g>
</svg>
