<?xml version="1.0" encoding="utf-8"?>
<!-- Generator: Adobe Illustrator 17.0.0, SVG Export Plug-In . SVG Version: 6.00 Build 0)  -->
<!DOCTYPE svg PUBLIC "-//W3C//DTD SVG 1.1//EN" "http://www.w3.org/Graphics/SVG/1.1/DTD/svg11.dtd">
<svg version="1.1" id="Layer_1" xmlns="http://www.w3.org/2000/svg" xmlns:xlink="http://www.w3.org/1999/xlink" x="0px" y="0px"
	 width="40px" height="40px" viewBox="0 0 40 40" enable-background="new 0 0 40 40" xml:space="preserve">
<path d="M31.488,19.75c0,6.346-5.144,11.488-11.488,11.488c-6.346,0-11.488-5.143-11.488-11.488c0-0.756,0.075-1.494,0.214-2.209H1
	v15.272c0,3.279,2.656,5.938,5.938,5.938h26.125c3.278,0,5.938-2.658,5.938-5.938V17.541h-7.727
	C31.413,18.256,31.488,18.994,31.488,19.75z M33.062,0.75H6.938C3.656,0.75,1,3.409,1,6.688v6.434h9.618
	c2.081-2.94,5.506-4.86,9.382-4.86c3.875,0,7.3,1.921,9.38,4.86H39V6.688C39,3.409,36.34,0.75,33.062,0.75z M35.965,8.085
	c0,0.584-0.476,1.061-1.06,1.061h-3.182c-0.583,0-1.061-0.477-1.061-1.061V4.904c0-0.584,0.478-1.061,1.061-1.061h3.182
	c0.583,0,1.06,0.477,1.06,1.061V8.085z M27.07,19.75c0-3.905-3.166-7.07-7.07-7.07c-3.905,0-7.07,3.165-7.07,7.07
	s3.165,7.07,7.07,7.07C23.904,26.82,27.07,23.655,27.07,19.75z"/>
</svg>
