<?xml version="1.0" encoding="utf-8"?>
<!-- Generator: Adobe Illustrator 17.0.0, SVG Export Plug-In . SVG Version: 6.00 Build 0)  -->
<!DOCTYPE svg PUBLIC "-//W3C//DTD SVG 1.1//EN" "http://www.w3.org/Graphics/SVG/1.1/DTD/svg11.dtd">
<svg version="1.1" id="Layer_1" xmlns="http://www.w3.org/2000/svg" xmlns:xlink="http://www.w3.org/1999/xlink" x="0px" y="0px"
	 width="40px" height="40px" viewBox="0 0 40 40" enable-background="new 0 0 40 40" xml:space="preserve">
<g>
	<path d="M10.691,5.585c0,2.01-1.484,3.637-3.925,3.637c-2.297,0-3.78-1.628-3.78-3.637c0-2.058,1.532-3.638,3.876-3.638
		C9.207,1.947,10.643,3.527,10.691,5.585z M3.176,35.5V12.095h7.275V35.5H3.176z"/>
	<path d="M14.805,19.561c0-2.919-0.095-5.36-0.191-7.467h6.317l0.336,3.255h0.143c0.957-1.532,3.303-3.782,7.228-3.782
		c4.786,0,8.376,3.207,8.376,10.099V35.5h-7.276V22.529c0-3.016-1.053-5.073-3.686-5.073c-2.01,0-3.206,1.388-3.732,2.728
		c-0.192,0.478-0.24,1.149-0.24,1.819V35.5h-7.276V19.561z"/>
</g>
</svg>
