<?xml version="1.0" encoding="utf-8"?>
<!-- Generator: Adobe Illustrator 17.0.2, SVG Export Plug-In . SVG Version: 6.00 Build 0)  -->
<!DOCTYPE svg PUBLIC "-//W3C//DTD SVG 1.1//EN" "http://www.w3.org/Graphics/SVG/1.1/DTD/svg11.dtd">
<svg version="1.1" id="Layer_1" xmlns="http://www.w3.org/2000/svg" xmlns:xlink="http://www.w3.org/1999/xlink" x="0px" y="0px"
	 width="243.5px" height="63.5px" viewBox="0 0 243.5 63.5" enable-background="new 0 0 243.5 63.5" xml:space="preserve">
<path fill="#FFFFFF" d="M20.501,16.624h-7.154v22.931c0,5.301,2.49,5.812,7.089,5.684v2.108c-4.982,0.319-9.772-0.384-9.517-7.792
	V16.624H4.852v-2.107h6.069V4.002h2.427v10.515h7.154V16.624z"/>
<path fill="#FFFFFF" d="M25.429,3.96v17.582h0.127c1.662-4.919,6.643-7.793,11.753-7.793c11.56,0,11.688,9.261,11.688,13.286v20.311
	h-2.427V26.589c0-3.386-0.383-10.731-9.325-10.731c-7.345,0-11.815,5.684-11.815,13.732v17.756h-2.428V3.96H25.429z"/>
<path fill="#FFFFFF" d="M54.212,21.798h0.192c1.278-4.28,6.643-7.729,12.582-7.473v2.426c-2.554-0.318-6.132,0.32-9.069,3.194
	c-2.426,2.491-3.45,4.535-3.705,9.453v17.948h-2.427v-32.83h2.427V21.798z"/>
<path fill="#FFFFFF" d="M67.201,31.251c-0.129,7.729,3.959,14.755,12.071,14.755c6.195,0,10.602-3.705,11.751-9.773h2.429
	c-1.279,7.665-6.388,11.881-14.18,11.881c-9.581,0-14.627-7.537-14.5-16.607c-0.127-9.006,4.599-17.756,14.5-17.756
	c10.284,0,14.882,8.112,14.434,17.501H67.201z M91.279,29.143c-0.126-6.898-4.469-13.285-12.007-13.285
	c-7.281,0-11.561,6.77-12.071,13.285H91.279z"/>
<path fill="#FFFFFF" d="M98.113,31.251c-0.128,7.729,3.961,14.755,12.072,14.755c6.195,0,10.603-3.705,11.754-9.773h2.425
	c-1.277,7.665-6.387,11.881-14.179,11.881c-9.581,0-14.627-7.537-14.498-16.607c-0.129-9.006,4.598-17.756,14.498-17.756
	c10.283,0,14.882,8.112,14.436,17.501H98.113z M122.193,29.143c-0.128-6.898-4.471-13.285-12.007-13.285
	c-7.282,0-11.56,6.77-12.072,13.285H122.193z"/>
<path fill="#FFFFFF" d="M128.685,36.424c0.385,6.068,4.919,9.582,10.858,9.582c4.279,0,10.411-1.278,10.411-6.963
	c0-5.557-5.62-6.387-11.241-7.537c-5.685-1.149-11.305-2.619-11.305-9.325c0-6.515,6.323-8.431,11.881-8.431
	c6.962,0,12.135,3.002,12.135,10.475h-2.427c-0.064-5.94-4.217-8.367-9.708-8.367c-4.472,0-9.454,1.66-9.454,6.323
	c0,5.237,5.621,6.068,10.922,7.218c6.516,1.213,11.625,2.747,11.625,9.644c0,7.09-7.089,9.07-12.839,9.07
	c-7.472,0-13.095-4.024-13.286-11.689H128.685z"/>
<path fill="#FFFFFF" d="M157.162,22.053h0.127c1.021-3.257,4.727-8.303,11.945-8.303c10.091,0,14.754,7.984,14.754,17.245
	c0,9.965-4.727,17.119-14.754,17.119c-5.431,0-10.029-2.299-11.945-7.601h-0.127V59.1h-2.428V14.517h2.428V22.053z M181.56,30.995
	c0-7.472-3.514-15.137-12.326-15.137c-8.752,0.001-12.01,7.345-12.01,15.137c0,7.793,2.748,15.011,12.01,15.011
	C177.793,46.006,181.56,39.107,181.56,30.995z"/>
<path fill="#FFFFFF" d="M200.977,13.75c9.646,0,15.074,7.856,15.074,17.182c0,9.324-5.428,17.181-15.074,17.181
	c-9.645,0-15.073-7.857-15.073-17.181C185.903,21.606,191.332,13.75,200.977,13.75z M200.977,46.006
	c8.24,0,12.648-7.219,12.648-15.074c0-7.857-4.408-15.074-12.648-15.074c-8.238,0-12.646,7.217-12.646,15.074
	C188.33,38.787,192.738,46.006,200.977,46.006z"/>
<path fill="#FFFFFF" d="M229.772,16.624h-7.153v22.931c0,5.301,2.49,5.812,7.09,5.684v2.108c-4.982,0.319-9.773-0.384-9.518-7.792
	V16.624h-6.068v-2.107h6.068V4.002h2.428v10.514h7.153V16.624z"/>
<g>
	<path fill="#FFFFFF" d="M235.275,47.41v-4.449h4.299v4.449H235.275z"/>
</g>
</svg>
